<svg width="339" height="290" viewBox="0 0 339 290" fill="none" xmlns="http://www.w3.org/2000/svg">
<path d="M60.6539 290H320.052C320.052 290 342.093 198.427 315.39 167.127C288.687 135.827 254.991 163.531 230.407 123.772C205.824 84.0124 186.75 1.95558 117.874 15.4907C67.6475 25.4306 28.653 86.9732 91.5953 195.043C107.49 222.748 54.2961 263.776 60.6539 290Z" fill="#F6F6F9"/>
<path d="M182.948 96.3556L156.993 99.3046C156.993 99.3046 167.021 85.1493 182.948 86.9187C198.875 88.983 182.948 96.3556 182.948 96.3556Z" fill="#0D52CE"/>
<path d="M133.397 238.499C169.97 245.282 214.801 241.448 229.254 239.973C230.138 243.512 231.318 247.051 232.498 250.885C261.107 343.484 266.711 512.168 266.711 512.168C266.711 512.168 247.835 512.463 241.051 512.168C241.051 512.168 184.422 312.519 179.408 293.351L165.841 510.989C165.841 510.989 156.403 511.284 145.195 510.989C145.195 510.989 111.571 441.687 118.06 300.133C119.24 277.426 128.973 249.115 133.397 238.499Z" fill="#1556E8"/>
<path d="M232.498 250.59C231.318 246.756 230.433 243.217 229.254 239.678C224.239 240.268 215.391 240.858 204.773 241.448C206.543 274.477 219.815 331.688 227.484 360.883C234.562 388.309 224.534 411.902 215.686 421.928C229.254 469.408 241.051 511.874 241.051 511.874C247.835 512.168 266.711 511.874 266.711 511.874C266.711 511.874 261.107 343.484 232.498 250.59Z" fill="#0D52CE"/>
<path d="M129.858 247.051C129.858 222.869 120.715 166.837 120.715 166.837C120.715 166.837 115.406 127.32 119.83 117.588C158.172 97.2402 219.226 76.8919 251.964 122.307C261.698 135.578 230.434 154.156 227.189 181.287C225.42 195.738 223.945 216.381 229.254 239.973C213.032 250 145.195 257.962 129.858 247.051Z" fill="#13E7A2"/>
<path d="M193.27 81.905L199.759 101.369C199.759 104.318 184.422 111.985 179.998 108.446C178.818 107.267 179.113 104.613 180.293 101.663L187.666 85.4439L193.27 81.905Z" fill="#F79091"/>
<path d="M186.486 88.9826C189.73 88.3928 193.86 87.5081 193.86 87.5081C193.86 87.5081 193.565 92.5214 189.14 96.3551C186.781 98.4195 184.126 99.3042 181.472 99.5991L186.486 88.9826Z" fill="#DD7A7F"/>
<path d="M189.141 74.5326L193.565 85.4439C194.745 89.2777 192.68 93.1114 189.141 94.291C186.192 95.1757 184.127 95.4706 180.293 95.1757C177.048 94.8808 175.279 91.9318 174.984 87.8032C174.689 82.2 175.869 77.1867 176.753 74.5326C178.228 68.6345 185.602 67.7498 189.141 74.5326Z" fill="#F79091"/>
<path d="M182.357 83.085C182.357 83.085 179.702 83.9697 175.868 83.6748C175.868 83.6748 175.868 86.034 177.343 86.9187C179.112 87.8034 181.472 86.034 182.357 83.085Z" fill="white"/>
<path d="M244.59 116.704C244.59 116.704 293.256 124.961 317.736 153.272C342.806 182.172 346.346 206.944 321.865 227.587C297.385 248.23 241.641 262.386 241.641 262.386L237.512 252.064C237.512 252.064 267.891 208.124 286.177 199.866C303.579 191.904 282.933 177.159 259.927 168.607C246.95 163.593 242.821 153.862 234.857 155.041C213.031 157.695 244.59 116.704 244.59 116.704Z" fill="#F79091"/>
<path d="M318.032 153.271C304.464 137.642 283.523 128.205 267.596 122.896C279.394 128.5 291.192 135.872 300.04 146.194C325.11 175.094 328.65 199.866 304.169 220.509C288.832 233.485 265.827 249.705 250.49 260.321C266.711 255.603 303.874 243.807 322.456 227.882C346.346 206.649 342.807 182.172 318.032 153.271Z" fill="#DD7A7F"/>
<path d="M237.807 251.769C237.807 251.769 230.139 245.576 226.304 246.756C222.47 247.935 214.801 255.603 216.571 255.898C218.341 256.192 225.419 251.179 225.419 251.179C225.419 251.179 218.636 259.142 218.341 262.385C217.751 265.629 222.47 267.104 224.83 266.514C227.189 265.924 238.987 265.334 242.231 262.091C245.181 258.847 237.807 251.769 237.807 251.769Z" fill="#F79091"/>
<path d="M227.189 101.369C227.189 101.369 203.594 164.773 226.009 161.529C237.217 159.76 259.338 166.247 274.97 174.8C281.754 167.427 292.077 152.977 294.141 134.103C263.762 114.934 227.189 101.369 227.189 101.369Z" fill="#13E7A2"/>
<path d="M234.267 115.524C236.331 113.164 240.166 109.331 241.05 106.972C231.022 102.843 223.944 99.3041 215.98 97.2397L205.362 127.91C205.362 127.91 225.418 125.845 234.267 115.524Z" fill="#15CC8A"/>
<path d="M179.113 124.371C179.113 124.371 194.156 115.524 202.119 104.613C204.479 101.369 202.414 96.9453 198.58 96.3555L195.925 88.9829C195.925 88.9829 215.096 88.9829 225.42 96.3555C236.037 103.728 232.498 118.768 211.262 126.141C190.026 133.218 184.127 134.988 179.113 138.232C174.099 141.181 168.201 187.775 162.597 188.07C156.698 188.365 147.554 180.993 153.453 169.786C159.057 158.58 164.661 135.283 179.113 124.371Z" fill="#0D52CE"/>
<path d="M164.366 92.5214L156.108 96.3551C149.619 99.3041 148.144 108.151 153.453 113.165C162.891 121.717 175.279 133.808 179.113 140.296C185.307 151.207 180.588 177.453 186.487 179.518C192.386 181.582 198.285 175.389 198.285 168.901C198.285 162.413 167.316 97.5347 175.869 96.65C175.869 96.9449 178.523 86.9182 164.366 92.5214Z" fill="#1556E8"/>
<path d="M127.203 115.819C127.203 115.819 110.981 118.178 84.7311 138.526C58.4812 158.875 50.5177 169.491 46.9784 167.722C43.4391 165.952 51.1076 157.99 57.3014 141.77C64.9699 121.127 73.2283 89.5727 73.8182 80.7256L63.2003 77.1868C63.2003 77.1868 -1.68728 137.052 3.91664 172.735C9.52057 208.418 44.0289 216.381 67.3295 205.174C90.63 193.968 124.549 173.03 124.549 173.03L127.203 115.819Z" fill="#F79091"/>
<path d="M128.678 114.049C128.678 114.049 110.981 117.883 84.7313 138.526C70.574 149.732 61.7257 157.695 55.8268 162.708C55.5319 172.145 57.3015 188.954 69.9841 203.699C92.9897 192.198 124.549 173.03 124.549 173.03L128.678 114.049Z" fill="#13E7A2"/>
<path d="M69.9841 56.8384C69.9841 56.8384 58.7762 80.7255 52.2875 83.3796C45.5038 85.7388 59.6611 91.9318 64.97 87.8031C70.279 83.6745 81.7818 60.967 81.7818 60.967L69.9841 56.8384Z" fill="#F3E2DA"/>
<path d="M88.2711 40.0298C84.4368 38.5553 79.1278 36.491 73.5239 33.542L64.0857 60.0832C69.6896 60.673 75.2935 61.5577 80.8975 62.7373C84.4368 63.6221 87.9761 61.5577 89.1559 58.3138L92.4003 48.8769C93.58 45.3381 91.8104 41.2095 88.2711 40.0298Z" fill="#FD6467"/>
<path d="M35.4755 1.39673L13.3547 63.9161C13.3547 63.9161 36.9502 57.7231 64.085 60.0823L73.5232 33.5411C57.3013 25.8736 44.0289 11.1285 35.4755 1.39673Z" fill="#F3E2DA"/>
<path d="M30.756 34.7208C24.5622 52.4149 16.3038 65.3907 12.1746 63.9161C8.04537 62.4416 9.81503 47.1067 16.0088 29.7075C22.2027 12.3082 30.4611 -0.962414 34.5903 0.512099C38.7195 1.98661 36.9498 17.3215 30.756 34.7208Z" fill="#FD6467"/>
<path d="M4.80132 32.0666L27.512 43.5678C28.6917 40.9137 29.8715 37.9647 30.7563 35.0157C32.2311 30.887 33.4108 27.0533 34.2957 23.2196L10.1103 17.3215C6.57098 16.1419 2.73672 18.2062 1.55694 21.745L0.967057 23.2196C-0.212717 26.7584 1.55694 30.5921 4.80132 32.0666Z" fill="#F3E2DA"/>
<path d="M30.7558 34.7201C32.2305 30.5915 33.4103 26.7577 34.2951 22.924L31.3457 22.0393L21.9075 40.6182L27.2165 43.2723C28.6912 40.9131 29.576 37.964 30.7558 34.7201Z" fill="#D6BCB2"/>
<path d="M73.2281 82.1999C73.2281 82.1999 77.9472 74.2375 73.2281 72.1732C68.5091 70.1089 67.0343 71.2885 64.9697 72.4681C62.6102 73.9426 66.4444 75.1222 68.2141 75.4171C69.9838 75.712 62.9051 80.4304 69.3939 84.854L73.2281 82.1999Z" fill="#F79091"/>
<path d="M65.5598 65.6855C65.5598 65.6855 62.6103 66.5702 60.5457 69.8142C58.7761 72.7632 56.4165 77.1867 58.4811 77.4816C60.5457 77.4816 63.4952 71.2887 65.8547 70.404C68.2143 69.5193 71.4586 64.5059 65.5598 65.6855Z" fill="#F79091"/>
<path d="M179.408 72.7632C179.408 72.7632 183.242 71.8785 185.012 73.9428C186.781 76.302 186.781 76.8918 187.076 78.9561C187.371 82.495 190.911 82.2001 191.5 80.4306C192.09 78.6612 193.565 82.2001 193.565 82.2001L194.745 85.7389C194.745 85.7389 199.169 73.353 199.169 67.7498C199.169 62.1467 191.5 62.7365 191.5 62.7365C191.5 62.7365 190.911 55.6588 181.472 54.4792C174.099 53.2996 167.02 66.2753 173.804 71.2887C177.048 73.9428 179.408 72.7632 179.408 72.7632Z" fill="#0D52CE"/>
<path d="M189.436 80.1358C189.436 79.546 189.436 78.6613 189.436 78.0715C189.436 76.5969 189.436 74.5326 191.796 75.4173C194.745 76.5969 195.04 84.2644 191.501 84.8542C188.846 85.444 189.141 81.9052 189.436 80.1358Z" fill="#F79091"/>
<path d="M229.254 239.678C223.945 216.086 225.419 195.738 227.189 180.993C228.074 173.915 231.023 167.132 234.563 161.234C234.563 161.234 215.391 160.644 209.787 180.698C205.658 194.853 202.414 228.177 200.644 248.23C213.032 246.166 223.945 243.217 229.254 239.678Z" fill="#15CC8A"/>
<path d="M70.574 182.467C47.2734 193.673 12.7651 185.711 7.16113 150.027C3.91676 157.99 2.44204 165.657 3.62181 172.44C9.22574 208.123 43.7341 216.086 67.0346 204.879C90.3352 193.673 117.175 177.158 117.175 177.158C117.175 177.158 90.0402 173.325 70.574 182.467Z" fill="#DD7A7F"/>
<path d="M59.6602 186.3C61.7248 192.198 64.9691 198.097 69.9832 203.7C69.9832 203.7 70.2781 203.7 70.2781 203.405C86.5 195.442 106.556 183.646 117.174 177.453C117.174 177.453 90.0393 173.325 70.5731 182.762C67.3287 184.236 63.4944 185.416 59.6602 186.3Z" fill="#15CC8A"/>
<path d="M212.736 146.784C212.736 146.784 212.441 145.015 210.967 146.784C209.492 148.553 207.427 150.028 207.132 151.797C206.838 152.977 207.427 156.516 209.197 158.285C210.967 160.349 214.506 155.041 214.506 153.272C214.801 149.733 212.736 146.784 212.736 146.784Z" fill="#0D52CE"/>
</svg>
