<svg width="330" height="550" viewBox="0 0 330 550" fill="none" xmlns="http://www.w3.org/2000/svg">
<path d="M77.1463 323.476C76.598 337.775 69.8624 342.725 69.5492 351.761C69.2359 361.347 76.0498 366.768 74.5617 380.282C73.0736 393.482 67.1212 395.211 66.0247 403.696C64.7716 413.439 71.4289 415.796 68.6093 433.003C66.9646 443.218 59.994 448.403 57.5661 454.925C53.8066 464.668 50.1256 465.925 45.6613 465.925C41.2753 465.925 39.3173 464.668 35.5579 455.003C33.0516 448.482 25.8461 447.618 23.3398 435.675C19.6587 417.761 26.2377 413.518 25.0629 403.775C23.9664 395.211 18.2489 393.561 17.544 379.889C16.9175 366.375 22.5566 361.425 22.2433 351.84C21.93 342.804 14.7245 337.854 14.5678 324.654C14.4112 309.568 21.93 306.19 22.2433 297.154C22.5566 287.569 17.1524 281.362 17.9356 268.476C18.7189 256.297 25.2978 251.819 26.316 243.255C27.5691 233.512 23.0265 220.783 24.6712 212.848C26.7076 202.869 30.232 202.712 31.1719 195.012C32.5817 183.541 31.3285 165.234 44.8781 164.762C55.0598 164.448 58.8975 181.184 58.7409 194.776C58.6625 202.633 64.2233 204.598 66.2597 214.576C67.8261 222.59 64.0667 233.433 65.3198 243.255C66.4163 251.819 72.917 256.14 73.4652 269.576C74.0918 283.326 69.0792 287.647 69.3925 297.233C69.7841 306.033 77.6945 308.783 77.1463 323.476Z" fill="#13E7A2"/>
<path d="M43.8597 394.192C44.5646 434.42 39.8653 424.913 36.4192 543.162H56.5477C55.6861 522.105 53.9631 476.77 54.2764 456.106C54.8246 362.842 52.8666 407.549 51.3002 367.242C50.282 340.449 52.3967 329.842 51.9267 318.764C51.5351 303.285 47.6191 275.314 48.4023 261.407C45.896 260.935 47.6974 297.707 47.4624 314.364C47.2275 336.285 41.98 342.728 43.8597 394.192Z" fill="#15CC8A"/>
<path d="M356.282 110.471C364.819 121.628 368.03 139.149 366.15 153.213C364.74 163.977 356.987 173.72 353.697 181.734C338.816 216.227 384.164 222.041 356.438 252.998C335.057 275.627 366.542 283.17 366.698 309.962C366.385 360.876 300.126 361.033 299.812 309.962C299.969 283.248 331.454 275.627 310.072 252.998C282.347 222.041 327.695 216.306 312.814 181.734C309.524 173.72 301.77 163.977 300.361 153.213C294.33 105.913 334.9 82.9707 356.282 110.471Z" fill="#13E7A2"/>
<path d="M326.598 318.838C327.616 373.838 321.272 361.738 316.651 519.509H343.75C342.575 488.473 340.539 431.509 340.93 404.638C341.635 275.389 338.972 337.381 336.858 281.517C335.526 244.432 338.346 229.739 337.719 214.339C337.249 192.889 331.845 154.075 332.942 134.904C329.496 134.197 332.002 185.189 331.689 208.289C331.219 238.617 324.091 247.575 326.598 318.838Z" fill="#15CC8A"/>
<path d="M409.228 449.031H327.696V549.602H409.228V449.031Z" fill="#D8E7EB"/>
<path d="M168.183 549.604H327.723V449.033H168.183V549.604Z" fill="#F0F8FA"/>
<path d="M168.155 449.031H45.739V549.602H168.155V449.031Z" fill="#D8E7EB"/>
<path d="M416.041 433.318H30.7019V449.033H416.041V433.318Z" fill="#4D6073"/>
<path d="M30.7019 433.319L64.0666 332.748H323.622L416.041 433.319H30.7019Z" fill="#566D82"/>
<path d="M199.875 233.043H83.4116V332.75H199.875V233.043Z" fill="#F0F8FA"/>
<path d="M199.852 332.764H286.24V233.057H199.852V332.764Z" fill="#D8E7EB"/>
<path d="M260.966 137.895H89.1296L65.6333 233.044H300.126L260.966 137.895Z" fill="#4D6073"/>
<path d="M89.1296 137.895L65.6333 233.044H206.141L182.645 137.895H89.1296Z" fill="#566D82"/>
<path d="M161.499 0H102.132L93.9866 22.8642H175.049L161.499 0Z" fill="#4D6073"/>
<path d="M102.132 0L93.9866 22.8642H142.546L134.4 0H102.132Z" fill="#566D82"/>
<path d="M148.653 44.627H101.661V137.891H148.653V44.627Z" fill="#566D82"/>
<path d="M148.673 137.918H162.692V44.6542H148.673V137.918Z" fill="#4D6073"/>
<path d="M111.686 22.8633H106.36V44.6274H111.686V22.8633Z" fill="#435565"/>
<path d="M139.726 22.8633H134.4V44.6274H139.726V22.8633Z" fill="#435565"/>
<path d="M158.364 22.8633H153.038V44.6274H158.364V22.8633Z" fill="#435565"/>
<path d="M134.555 468.441H83.4116V525.563H134.555V468.441Z" fill="#F0F8FA"/>
<path d="M106.752 500.102H89.208V519.509H106.752V500.102Z" fill="#FFAA00"/>
<path d="M128.759 474.41H111.45V494.367H128.759V474.41Z" fill="#FFAA00"/>
<path d="M106.752 474.41H89.208V494.367H106.752V474.41Z" fill="#FFAA00"/>
<path d="M128.759 500.102H111.45V519.509H128.759V500.102Z" fill="#FFAA00"/>
<path d="M268.642 254.334H217.498V311.455H268.642V254.334Z" fill="#F0F8FA"/>
<path d="M240.758 305.404H223.214V285.997H240.758V305.404ZM245.536 260.383V280.34H262.845V260.383H245.536ZM240.758 260.383H223.214V280.34H240.758V260.383ZM245.536 305.404H262.845V285.997H245.536V305.404Z" fill="#FFAA00"/>
<path d="M91.2439 513.07H80.6706C80.3573 499.87 69.549 489.342 56.3128 489.342H51.5352C38.299 489.342 27.4907 499.949 27.1774 513.149C12.0614 514.013 0 526.584 0 542.063V549.606H120.144V542.063C120.144 526.034 107.221 513.07 91.2439 513.07Z" fill="#15CC8A"/>
<path d="M301.927 454.928H243.03V549.606H301.927V454.928Z" fill="#435565"/>
<path d="M296.42 549.631V460.453H248.488V549.631H296.42Z" fill="#566D82"/>
<path d="M286.027 469.854H257.831V498.768H286.027V469.854Z" fill="#4D6073"/>
<path d="M286.027 504.975H257.831V533.889H286.027V504.975Z" fill="#4D6073"/>
<path d="M101.302 137.777L78.7703 233.109L79.5323 233.291L102.064 137.958L101.302 137.777Z" fill="#4D6073"/>
<path d="M112.699 137.838L96.7751 233.146L97.5475 233.276L113.472 137.968L112.699 137.838Z" fill="#4D6073"/>
<path d="M124.114 137.887L114.825 233.215L115.604 233.291L124.893 137.963L124.114 137.887Z" fill="#4D6073"/>
<path d="M135.57 137.858L132.805 233.205L133.588 233.228L136.353 137.881L135.57 137.858Z" fill="#4D6073"/>
<path d="M147.743 137.841L146.96 137.873L150.813 233.182L151.595 233.15L147.743 137.841Z" fill="#4D6073"/>
<path d="M159.162 137.822L158.383 137.908L168.826 233.268L169.604 233.182L159.162 137.822Z" fill="#4D6073"/>
<path d="M170.59 137.787L169.819 137.926L186.854 233.283L187.625 233.144L170.59 137.787Z" fill="#4D6073"/>
<path d="M193.195 137.809L192.435 137.996L215.804 233.371L216.564 233.184L193.195 137.809Z" fill="#435565"/>
<path d="M207.113 137.76L206.361 137.979L233.811 233.314L234.563 233.096L207.113 137.76Z" fill="#435565"/>
<path d="M221.043 137.721L220.3 137.969L251.829 233.271L252.573 233.024L221.043 137.721Z" fill="#435565"/>
<path d="M234.991 137.777L234.257 138.053L269.885 233.404L270.619 233.129L234.991 137.777Z" fill="#435565"/>
<path d="M248.911 137.722L248.189 138.025L287.902 233.36L288.625 233.057L248.911 137.722Z" fill="#435565"/>
<path d="M138.785 306.033H114.506V356.554H138.785V306.033Z" fill="#435565"/>
<path d="M93.3606 301.871V369.678H106.675V315.228H126.255V369.678H141.606V301.871H93.3606Z" fill="#F0F8FA"/>
<path d="M106.672 369.674L114.504 356.553V315.225H106.672V369.674Z" fill="#D8E7EB"/>
<path d="M141.605 369.678L160.167 332.749V301.871H141.605V369.678Z" fill="#D8E7EB"/>
<path d="M89.1294 301.869L116.307 265.412L143.484 301.869H89.1294Z" fill="#1556E8"/>
<path d="M143.483 301.869H164.395L137.06 265.412H116.305L143.483 301.869Z" fill="#0D52CE"/>
<path d="M263.708 106.303H212.564V201.531H263.708V106.303Z" fill="#D8E7EB"/>
<path d="M235.826 193.671H218.282V157.136H235.826V193.671ZM240.603 112.193V150.85H257.912V112.193H240.603ZM235.826 112.193H218.282V150.85H235.826V112.193ZM240.603 193.671H257.912V157.136H240.603V193.671Z" fill="#FFAA00"/>
<path d="M270.128 106.308L241.384 63.0156L212.641 106.308H270.128Z" fill="#4D6073"/>
<path d="M212.643 106.308H168.626L197.527 63.0156H241.386L212.643 106.308Z" fill="#566D82"/>
<path d="M212.563 106.303H198.152V137.888L212.563 201.531V106.303Z" fill="#F0F8FA"/>
<path d="M198.152 106.303H175.048V137.81H198.152V106.303Z" fill="#F0F8FA"/>
<path d="M162.674 51.1504H159.776V51.4647H162.674V51.1504Z" fill="#435565"/>
<path d="M162.674 51.1483V50.7555H160.167V44.627H159.776V51.1483H162.674Z" fill="#435565"/>
<path d="M162.674 70.7109H159.776V71.0252H162.674V70.7109Z" fill="#435565"/>
<path d="M159.776 70.7116H162.674V70.3973H160.167V61.283H162.674V60.9688H159.776V70.7116Z" fill="#435565"/>
<path d="M162.674 60.5801H159.776V60.8944H162.674V60.5801Z" fill="#435565"/>
<path d="M162.674 90.3574H159.776V90.6717H162.674V90.3574Z" fill="#435565"/>
<path d="M159.776 90.3546H162.674V90.0403H160.167V80.9261H162.674V80.5332H159.776V90.3546Z" fill="#435565"/>
<path d="M162.674 80.2227H159.776V80.5369H162.674V80.2227Z" fill="#435565"/>
<path d="M162.674 109.998H159.776V110.312H162.674V109.998Z" fill="#435565"/>
<path d="M159.776 110.001H162.674V109.608H160.167V100.494H162.674V100.18H159.776V110.001Z" fill="#435565"/>
<path d="M162.674 99.7832H159.776V100.098H162.674V99.7832Z" fill="#435565"/>
<path d="M162.674 129.564H159.776V129.879H162.674V129.564Z" fill="#435565"/>
<path d="M159.776 129.561H162.674V129.247H160.167V120.133H162.674V119.818H159.776V129.561Z" fill="#435565"/>
<path d="M162.674 119.428H159.776V119.742H162.674V119.428Z" fill="#435565"/>
<path d="M145.131 51.1504V56.0218H145.523V51.4647H159.777V51.1504H145.131Z" fill="#435565"/>
<path d="M144.817 51.4647V56.0218H145.131V51.1504H130.485V51.4647H144.817Z" fill="#435565"/>
<path d="M145.131 51.1483H159.777V44.627H159.463V50.7555H130.876V44.627H130.485V51.1483H145.131Z" fill="#435565"/>
<path d="M159.777 70.7109H145.131V75.6609H145.523V71.1038H159.777V70.7109Z" fill="#435565"/>
<path d="M144.817 75.6609H145.131V70.7109H130.485V71.1038H144.817V75.6609Z" fill="#435565"/>
<path d="M145.131 60.9688H130.485V70.7116H159.777V60.9688H145.131ZM159.463 61.283V70.3973H130.876V61.283H159.463Z" fill="#435565"/>
<path d="M145.131 60.9715H159.777V60.5786H145.523V56.0215H145.131V60.9715Z" fill="#435565"/>
<path d="M130.485 60.5786V60.9715H145.131V56.0215H144.817V60.5786H130.485Z" fill="#435565"/>
<path d="M159.777 90.3574H145.131V95.2288H145.523V90.7503H159.777V90.3574Z" fill="#435565"/>
<path d="M144.817 95.2288H145.131V90.3574H130.485V90.7503H144.817V95.2288Z" fill="#435565"/>
<path d="M145.131 80.5332H130.485V90.3546H159.777V80.5332H145.131ZM159.463 80.9261V90.0403H130.876V80.9261H159.463Z" fill="#435565"/>
<path d="M145.131 80.5335H159.777V80.2192H145.523V75.6621H145.131V80.5335Z" fill="#435565"/>
<path d="M145.131 80.5335V75.6621H144.817V80.2192H130.485V80.5335H145.131Z" fill="#435565"/>
<path d="M159.777 109.998H145.131V114.869H145.523V110.312H159.777V109.998Z" fill="#435565"/>
<path d="M144.817 114.869H145.131V109.998H130.485V110.312H144.817V114.869Z" fill="#435565"/>
<path d="M145.131 100.18H130.485V110.001H159.777V100.18H145.131ZM159.463 100.494V109.608H130.876V100.494H159.463Z" fill="#435565"/>
<path d="M145.131 100.178H159.777V99.7856H145.523V95.2285H145.131V100.178Z" fill="#435565"/>
<path d="M145.131 100.178V95.2285H144.817V99.7856H130.485V100.178H145.131Z" fill="#435565"/>
<path d="M159.777 129.564H145.131V134.514H145.523V129.957H159.777V129.564Z" fill="#435565"/>
<path d="M130.485 129.564V129.957H144.817V134.514H145.131V129.564H130.485Z" fill="#435565"/>
<path d="M159.777 129.567V119.746H145.131H130.485V129.567H159.777ZM130.876 120.139H159.463V129.253H130.876V120.139Z" fill="#435565"/>
<path d="M145.131 119.819H159.777V119.426H145.523V114.869H145.131V119.819Z" fill="#435565"/>
<path d="M144.817 114.869V119.426H130.485V119.819H145.131V114.869H144.817Z" fill="#435565"/>
<path d="M145.444 134.518H145.131V137.896H145.444V134.518Z" fill="#435565"/>
<path d="M145.129 134.518H144.815V137.896H145.129V134.518Z" fill="#435565"/>
<path d="M115.837 51.1504V56.0218H116.229V51.4647H130.483V51.1504H115.837Z" fill="#435565"/>
<path d="M115.837 51.1504H101.661V51.4647H115.523V56.0218H115.837V51.1504Z" fill="#435565"/>
<path d="M115.837 51.1483H130.483V44.627H130.169V50.7555H101.661V51.1483H115.837Z" fill="#435565"/>
<path d="M116.229 75.6609V71.1038H130.483V70.7109H115.837V75.6609H116.229Z" fill="#435565"/>
<path d="M115.837 70.7109H101.661V71.1038H115.523V75.6609H115.837V70.7109Z" fill="#435565"/>
<path d="M115.837 70.7116H130.483V60.9688H115.837H101.661V61.283H130.169V70.3973H101.661V70.7116H115.837Z" fill="#435565"/>
<path d="M130.483 60.5786H116.229V56.0215H115.837V60.9715H130.483V60.5786Z" fill="#435565"/>
<path d="M115.837 60.9715V56.0215H115.523V60.5786H101.661V60.9715H115.837Z" fill="#435565"/>
<path d="M116.229 95.2288V90.7503H130.483V90.3574H115.837V95.2288H116.229Z" fill="#435565"/>
<path d="M115.837 90.3574H101.661V90.7503H115.523V95.2288H115.837V90.3574Z" fill="#435565"/>
<path d="M115.837 90.3546H130.483V80.5332H115.837H101.661V80.9261H130.169V90.0403H101.661V90.3546H115.837Z" fill="#435565"/>
<path d="M130.483 80.2192H116.229V75.6621H115.837V80.5335H130.483V80.2192Z" fill="#435565"/>
<path d="M115.837 80.5335V75.6621H115.523V80.2192H101.661V80.5335H115.837Z" fill="#435565"/>
<path d="M116.229 114.869V110.312H130.483V109.998H115.837V114.869H116.229Z" fill="#435565"/>
<path d="M115.837 109.998H101.661V110.312H115.523V114.869H115.837V109.998Z" fill="#435565"/>
<path d="M115.837 110.001H130.483V100.18H115.837H101.661V100.494H130.169V109.608H101.661V110.001H115.837Z" fill="#435565"/>
<path d="M130.483 99.7856H116.229V95.2285H115.837V100.178H130.483V99.7856Z" fill="#435565"/>
<path d="M115.837 100.178V95.2285H115.523V99.7856H101.661V100.178H115.837Z" fill="#435565"/>
<path d="M130.483 129.564H115.837V134.514H116.229V129.957H130.483V129.564Z" fill="#435565"/>
<path d="M115.523 134.514H115.837V129.564H101.661V129.957H115.523V134.514Z" fill="#435565"/>
<path d="M115.837 129.561H130.483V119.818H115.837H101.661V120.133H130.169V129.247H101.661V129.561H115.837Z" fill="#435565"/>
<path d="M130.483 119.426H116.229V114.869H115.837V119.819H130.483V119.426Z" fill="#435565"/>
<path d="M115.837 119.819V114.869H115.523V119.426H101.661V119.819H115.837Z" fill="#435565"/>
<path d="M116.15 134.518H115.837V137.896H116.15V134.518Z" fill="#435565"/>
<path d="M115.837 134.518H115.524V137.896H115.837V134.518Z" fill="#435565"/>
</svg>
