<svg width="321" height="310" viewBox="0 0 321 310" fill="none" xmlns="http://www.w3.org/2000/svg">
<path d="M147.865 272.585L143.911 271L165.524 213.684C165.787 212.891 164.733 211.042 162.097 210.25L134.686 199.685C132.314 198.892 130.205 199.421 129.942 199.949L108.329 257.265L104.376 255.68L125.988 198.364C127.306 195.195 131.787 193.874 136.004 195.459L163.415 206.024C167.896 207.609 170.268 211.571 169.214 214.74L147.865 272.585Z" fill="#311E69"/>
<path d="M178.703 264.129C176.858 260.96 173.958 258.319 170.532 256.998L91.9885 227.151C83.5544 223.982 74.3294 225.302 67.2131 230.585L141.803 259.111C148.919 261.752 153.927 268.091 154.718 275.487C155.245 278.921 154.718 282.09 153.664 285.26L100.686 425.513L113.601 421.815C121.772 419.438 128.361 413.363 131.26 405.439L179.493 277.6C181.338 273.374 181.075 268.356 178.703 264.129Z" fill="#0D52CE"/>
<path d="M154.717 275.488C153.663 268.092 148.655 261.753 141.802 259.112L67.2122 230.586C65.8944 231.642 64.8401 232.699 63.5223 233.755L61.4137 235.869C54.5609 243 49.026 251.716 45.5996 260.961L1.0565 378.763C-2.10632 386.951 2.11078 395.931 10.0178 398.837L80.3907 425.514C85.662 427.627 91.7241 427.891 97.2591 426.306L100.422 425.514L153.663 285.261C154.717 282.091 155.244 278.658 154.717 275.488Z" fill="#1556E8"/>
<path d="M98.5773 290.808C97.523 293.713 91.1973 293.713 84.3445 291.072C77.4917 288.431 72.7475 284.205 73.8018 281.299C74.856 278.394 81.1817 278.394 88.0345 281.035C95.1509 283.676 99.6315 288.167 98.5773 290.808Z" fill="#13E7A2"/>
<path d="M49.8182 297.408C49.8182 297.408 77.7564 318.803 109.121 315.897C109.121 316.161 65.8958 332.538 49.8182 297.408Z" fill="#0D52CE"/>
<path d="M226.672 9.77282C226.672 9.77282 224.036 0 213.757 0C203.214 0 197.943 9.24456 196.625 22.4511C195.307 35.6576 182.656 50.4489 157.09 72.8999C135.213 91.9173 158.935 137.876 201.369 132.065C238.532 127.047 243.277 78.1825 240.377 55.7315C237.478 33.2804 226.672 9.77282 226.672 9.77282Z" fill="#D66E3A"/>
<path d="M195.571 126.517L234.579 103.01C234.579 103.01 237.742 122.291 221.137 136.554C209.804 146.063 190.036 147.384 177.385 145.799C179.493 141.309 181.602 137.347 184.238 133.649L195.571 126.517Z" fill="#3438AD"/>
<path d="M216.92 39.3549C216.92 39.3549 221.664 42.2604 222.455 46.7506C223.509 51.2408 218.501 53.3538 213.494 51.7691C208.486 50.1843 207.695 44.9017 207.168 42.2604C207.168 39.3549 214.021 38.0343 216.92 39.3549Z" fill="#E0E0E0"/>
<path d="M301.788 81.0885C268.314 87.1635 225.089 47.8081 225.089 47.8081C225.089 47.8081 216.391 38.5636 218.764 37.7712C233.26 32.4886 285.71 59.4299 289.664 55.2038C295.989 48.6005 239.058 38.2995 232.996 21.6593C230.888 16.3767 233.523 6.07559 239.058 3.96255C280.439 -12.9418 355.029 71.844 301.788 81.0885Z" fill="#1556E8"/>
<path d="M218.764 37.7685C219.555 37.5044 220.609 37.2402 221.664 37.2402C222.191 38.0326 222.718 38.2968 222.718 38.2968C222.718 38.2968 265.943 77.6521 299.416 71.8413C313.385 69.4641 318.657 61.5402 317.866 51.7674C323.401 65.7663 320.238 77.9163 301.788 81.0858C268.315 87.1608 225.09 47.8054 225.09 47.8054C225.09 47.8054 216.392 38.5609 218.764 37.7685Z" fill="#0D52CE"/>
<path d="M162.624 432.115C166.314 430.53 169.213 429.474 170.004 427.889C172.112 424.455 171.321 420.229 171.321 420.229C171.321 420.229 169.476 193.87 170.004 179.343C170.531 169.834 171.849 161.646 173.957 154.779V154.514C174.221 153.986 174.221 153.722 174.484 153.194C174.484 153.194 174.484 153.194 174.484 152.93C175.011 151.081 175.802 149.496 176.329 147.647C176.593 147.119 176.593 146.855 176.856 146.326C177.647 144.742 178.438 143.157 179.228 141.572C182.391 135.497 185.818 130.743 189.508 126.252C197.415 116.48 205.322 109.876 207.167 101.424C210.857 83.4634 188.98 49.6547 201.368 41.995C212.702 34.8635 225.88 33.0145 236.423 49.3906C250.919 71.5775 257.508 83.9917 274.904 143.157C276.485 148.439 278.067 153.722 279.648 159.005C299.943 229.263 258.035 420.229 258.035 420.229C258.035 420.229 256.718 427.097 257.245 428.153C257.508 428.681 262.516 430.266 266.47 432.379C268.315 433.964 269.896 435.813 268.051 436.605C264.888 437.662 245.648 437.662 243.803 434.492C243.276 433.436 242.485 432.643 241.694 431.851C244.33 428.153 245.648 423.927 245.911 420.493C245.911 420.493 238.004 190.436 226.407 178.022C226.407 178.022 189.508 398.571 183.973 420.758C184.236 424.191 185.027 428.417 187.663 432.115C186.872 432.643 186.081 433.7 185.554 434.757C183.709 437.926 164.469 437.926 161.306 436.87C158.934 435.813 160.779 433.7 162.624 432.115Z" fill="#F79091"/>
<path d="M170.004 179.343C170.531 169.834 171.849 161.646 173.958 154.779V154.514C174.221 153.986 174.221 153.722 174.485 153.194C174.485 153.194 174.485 153.194 174.485 152.93C175.012 151.081 175.803 149.496 176.33 147.647C176.594 147.119 176.594 146.855 176.857 146.326C177.648 144.742 178.439 143.157 179.229 141.572C182.392 135.497 185.818 130.743 189.508 126.252C197.416 116.48 205.323 109.876 207.168 101.424C210.857 83.4634 188.981 49.6547 201.369 41.995C212.702 34.8635 225.881 33.0145 236.424 49.3906C250.92 71.5775 257.509 83.9917 274.905 143.157C276.486 148.439 278.068 153.722 279.649 159.005C296.254 216.321 271.215 354.461 261.726 402.797C257.509 403.853 251.974 404.91 245.385 405.966C243.54 355.782 236.16 188.323 226.408 177.494C226.408 177.494 197.943 347.594 187.4 403.853C182.129 402.797 176.857 401.212 171.322 399.363C170.531 343.367 169.477 191.229 170.004 179.343Z" fill="#13E7A2"/>
<path d="M248.548 198.624C254.874 221.075 248.021 318.803 262.781 338.349C265.417 341.782 268.579 344.688 271.742 347.065C270.688 354.461 269.37 361.592 268.052 368.988C266.734 376.648 265.417 384.043 263.835 391.439C263.572 393.288 263.044 395.137 262.781 396.986C259.882 411.513 258.037 420.229 258.037 420.229C258.037 420.229 256.719 427.096 257.246 428.153C257.509 428.681 262.517 430.266 266.471 432.379C268.316 433.964 269.897 435.813 268.052 436.605C264.889 437.662 245.649 437.662 243.804 434.492C243.277 433.436 242.486 432.643 241.695 431.851C244.331 428.153 245.649 423.927 245.912 420.493C245.912 420.493 245.649 415.211 245.385 406.23C245.122 398.834 244.858 391.439 244.595 384.307C244.331 376.912 244.067 369.252 243.54 361.856C243.277 354.196 242.75 346.537 242.486 338.877C242.222 331.217 241.695 323.822 241.168 316.162C240.641 308.502 240.378 300.842 239.85 293.182C239.323 285.523 238.796 277.863 238.269 270.203C237.742 262.543 237.215 255.148 236.688 247.488C236.16 239.828 235.37 232.432 234.579 224.773C233.788 217.377 232.998 209.981 231.943 202.586C231.416 199.152 230.889 195.454 230.362 192.021C229.835 188.587 229.044 185.153 227.99 181.984C227.463 180.663 227.199 179.078 226.145 178.286C226.145 177.493 242.222 175.909 248.548 198.624Z" fill="#15CC8A"/>
<path d="M162.625 432.116C166.315 430.532 169.214 429.475 170.005 427.89C172.114 424.457 171.323 420.231 171.323 420.231C171.323 420.231 170.269 304.806 170.005 233.491C170.005 223.454 170.005 214.209 170.005 206.285C170.005 206.285 170.005 206.285 170.005 206.021C170.005 205.493 170.005 205.229 170.005 204.7C170.005 204.7 170.005 204.7 170.005 204.436C170.005 202.059 170.005 199.946 170.005 197.833C170.005 197.041 170.005 196.248 170.005 195.456C170.005 195.192 170.005 194.663 170.005 194.399C170.005 193.607 170.005 193.079 170.005 192.286C170.005 192.022 170.005 191.494 170.005 191.23C170.005 190.437 170.005 189.909 170.005 189.381C170.005 189.117 170.005 188.853 170.005 188.588C170.005 188.324 170.005 188.06 170.005 187.796C170.005 187.532 170.005 187.268 170.005 187.004C170.005 187.004 170.005 187.004 170.005 186.739C170.005 186.475 170.005 186.211 170.005 185.947C170.005 185.683 170.005 185.419 170.005 185.155C170.005 184.891 170.005 184.626 170.005 184.626C170.005 184.626 170.005 184.626 170.005 184.362C170.005 184.098 170.005 184.098 170.005 183.834C170.005 183.57 170.005 183.57 170.005 183.306C170.005 183.042 170.005 183.042 170.005 182.778C170.005 182.513 170.005 182.513 170.005 182.249C170.005 181.985 170.005 181.985 170.005 181.721C170.005 181.457 170.005 181.457 170.005 181.193V180.929V180.664V180.4C170.532 170.892 171.85 162.704 173.959 155.836V155.572C174.222 155.044 174.222 154.78 174.486 154.251C174.486 154.251 174.486 154.251 174.486 153.987C175.013 152.138 175.804 150.554 176.331 148.705C176.594 148.176 176.594 147.912 176.858 147.384C177.649 145.799 178.439 144.215 179.23 142.63C182.393 136.555 185.819 131.8 189.509 127.31C197.416 117.537 205.323 110.934 206.905 102.746C212.176 108.029 216.13 114.104 216.92 120.443C219.82 144.215 194.517 176.438 188.719 209.455C183.184 241.15 170.269 306.919 205.06 304.542C195.835 358.424 186.61 411.25 183.974 421.287C184.238 424.721 185.029 428.947 187.664 432.645C186.874 433.173 186.083 434.229 185.556 435.286C183.711 438.456 164.47 438.456 161.307 437.399C158.935 435.814 160.78 433.701 162.625 432.116Z" fill="#15CC8A"/>
<path d="M194.516 104.066C202.686 78.4449 188.717 49.9189 201.368 41.995C212.702 34.8635 225.88 33.0145 236.423 49.3906C245.911 64.1819 260.144 75.5395 268.051 97.9906C266.997 98.7829 265.679 104.066 259.353 104.858C255.664 105.122 248.02 100.896 243.276 101.16C240.113 101.424 233.524 106.443 230.361 106.707C224.299 107.235 221.663 102.481 216.128 103.009C211.384 103.273 205.322 109.084 201.632 109.084C190.826 109.084 194.516 104.066 194.516 104.066Z" fill="#1556E8"/>
<path d="M194.516 104.068C202.687 78.4471 188.717 49.921 201.369 41.9971C204.004 40.4123 206.904 38.8275 209.803 38.0352C211.384 49.3927 218.501 93.2383 227.726 106.973C223.245 106.181 220.609 103.011 215.865 103.275C211.121 103.539 205.059 109.35 201.369 109.35C190.826 109.086 194.516 104.068 194.516 104.068Z" fill="#0D52CE"/>
<path d="M208.749 26.1504L208.485 41.2058C208.485 43.583 214.547 50.1862 218.501 47.0167C219.555 46.2243 218.237 42.7906 217.183 40.1493L214.283 27.2069L208.749 26.1504Z" fill="#F79091"/>
<path d="M215.865 34.8675C212.702 33.811 209.539 29.0566 209.539 29.0566H214.81L215.865 34.8675Z" fill="#DD7A7F"/>
<path d="M208.748 16.6406L207.957 22.4515C207.167 26.9417 210.066 31.696 214.81 32.4884C219.027 33.2808 222.981 30.9036 223.771 25.3569C224.299 20.6026 220.872 16.6406 219.818 14.2634C216.655 9.50911 210.329 10.0374 208.748 16.6406Z" fill="#F79091"/>
<path d="M209.013 22.1864C208.749 21.6582 208.749 21.1299 208.749 20.6016C208.486 19.5451 208.222 18.2245 206.904 19.281C205.059 20.6016 206.114 25.6201 208.486 25.6201C210.067 25.6201 209.54 23.2429 209.013 22.1864Z" fill="#F79091"/>
<path d="M221.138 20.3372C221.138 19.8089 221.138 19.2806 221.138 18.7524C221.138 17.6959 221.137 16.3752 222.719 16.9035C224.827 17.6959 225.091 22.9785 222.455 23.5067C220.874 24.035 220.874 21.6578 221.138 20.3372Z" fill="#F79091"/>
<path d="M227.726 76.8594C227.726 76.8594 234.578 81.8778 234.051 94.292C233.788 99.0463 232.206 103.272 230.361 106.97C230.361 106.97 230.361 106.97 230.098 106.97C224.036 107.498 221.4 102.744 215.865 103.272C214.547 103.272 213.493 103.801 212.175 104.329L227.726 76.8594Z" fill="#0D52CE"/>
<path d="M214.284 24.8275C214.284 24.8275 216.657 25.0917 219.819 24.0352C219.819 24.0352 219.292 26.4123 218.238 27.4689C217.184 28.2612 215.602 27.2047 214.284 24.8275Z" fill="white"/>
<path d="M179.229 141.573C181.337 137.612 183.709 134.178 185.818 131.008L205.585 130.744C205.585 130.744 203.74 143.422 177.384 145.535C178.174 144.215 178.701 142.894 179.229 141.573Z" fill="#0CAF71"/>
<path d="M226.407 6.60236L227.198 9.24366C227.462 10.5643 226.407 12.1491 225.09 12.1491H220.609C219.555 12.1491 218.764 11.3567 218.5 10.3002L217.973 7.65888C217.71 6.33823 218.764 5.01758 220.082 5.01758H224.562C225.09 5.01758 226.144 5.80997 226.407 6.60236Z" fill="#D66E3A"/>
<path d="M214.812 6.60236L215.602 9.24366C215.866 10.5643 214.812 12.1491 213.494 12.1491H209.013C207.959 12.1491 207.168 11.3567 206.905 10.3002L206.378 7.65888C206.114 6.33823 207.168 5.01758 208.486 5.01758H212.967C213.757 5.01758 214.812 5.80997 214.812 6.60236Z" fill="#D66E3A"/>
<path d="M215.338 9.24458H215.602C217.183 8.45219 218.238 9.24458 218.238 9.24458C218.501 9.50871 219.028 9.50871 219.028 9.24458C219.292 8.98045 219.292 8.45219 219.028 8.45219C219.028 8.45219 217.447 7.13154 215.075 8.45219C214.811 8.71632 214.548 8.98045 214.811 9.24458C214.811 9.24458 215.075 9.24458 215.338 9.24458Z" fill="white"/>
<path d="M219.555 4.75391H224.036C225.09 4.75391 226.145 5.5463 226.408 6.60282L227.199 9.24412C227.462 10.0365 227.199 10.8289 226.672 11.3572C226.145 11.8854 225.354 12.4137 224.563 12.4137H220.082C218.765 12.4137 217.974 11.6213 217.447 10.3006L216.92 7.65934C216.656 6.86695 216.92 6.07456 217.447 5.5463C218.238 5.01804 218.765 4.75391 219.555 4.75391ZM217.71 7.65934L218.238 10.3006C218.501 11.093 219.292 11.8854 220.082 11.8854H224.563C225.09 11.8854 225.617 11.6213 226.145 11.093C226.408 10.5648 226.672 10.0365 226.408 9.50825L225.617 6.86695C225.881 5.81043 225.09 5.28217 224.3 5.28217H219.819C219.292 5.28217 218.765 5.5463 218.238 6.07456C217.71 6.60282 217.71 7.13108 217.71 7.65934Z" fill="white"/>
<path d="M206.377 5.54675C206.904 5.01849 207.695 4.49023 208.486 4.49023H212.966C214.02 4.49023 215.075 5.28262 215.338 6.33914L216.129 8.98044C216.393 9.77283 216.129 10.5652 215.602 11.0935C215.075 11.6217 214.284 12.15 213.493 12.15H209.013C207.695 12.15 206.904 11.3576 206.377 10.037L205.85 7.39566C205.586 7.13153 205.85 6.33914 206.377 5.54675ZM206.377 7.65979L206.904 10.3011C207.168 11.0935 207.958 11.8859 208.749 11.8859H213.23C213.757 11.8859 214.284 11.6217 214.811 11.0935C215.075 10.5652 215.338 10.037 215.075 9.5087L214.284 6.8674C214.284 5.81088 213.757 5.28262 212.703 5.28262H208.222C207.695 5.28262 207.168 5.54675 206.641 6.07501C206.377 6.60327 206.377 7.13153 206.377 7.65979Z" fill="white"/>
<path d="M235.896 9.24547C235.896 9.24547 233.524 5.54765 229.834 4.75526C226.144 3.96287 224.035 4.49113 224.826 5.28352C225.353 5.81178 228.779 6.8683 228.779 7.92482C228.779 8.71721 226.407 8.18895 225.616 9.24547C224.826 11.0944 228.252 10.5661 230.624 11.8868C232.733 12.9433 234.578 12.415 235.632 11.6226C236.95 10.5661 235.896 9.24547 235.896 9.24547Z" fill="#F79091"/>
<path d="M206.641 10.5641L204.796 20.3369L204.005 19.5445L206.113 7.39453L206.641 10.5641Z" fill="white"/>
<path d="M156.562 103.012C169.741 66.5618 199.787 43.3184 199.787 43.3184C205.322 49.9216 200.578 64.977 197.942 71.5803C200.051 69.2031 207.958 63.9205 219.819 69.9955C242.749 81.8814 223.245 110.407 209.539 126.783C186.345 153.989 143.384 139.462 156.562 103.012Z" fill="#1556E8"/>
<path d="M156.562 103.009C163.151 84.7842 173.957 69.7288 183.182 59.4277C178.438 66.5592 174.221 75.0114 171.058 83.9918C158.143 119.649 198.733 134.177 222.19 109.612C218.237 115.952 213.756 121.762 209.539 126.781C186.345 153.986 143.383 139.459 156.562 103.009Z" fill="#0D52CE"/>
<path d="M216.129 67.0895L222.455 68.146C223.509 68.4101 224.563 67.6177 224.827 66.5612L227.726 50.7134C227.99 49.6569 227.199 48.6004 226.145 48.3362L219.819 47.2797C218.765 47.0156 217.711 47.808 217.447 48.8645L217.184 50.9775L214.811 64.7123C214.284 66.0329 215.075 67.0895 216.129 67.0895Z" fill="#15CC8A"/>
<path d="M222.454 53.0901C222.718 52.826 222.982 52.5619 223.509 52.5619C223.509 52.5619 223.772 53.8825 222.454 53.3543C222.718 54.1466 222.454 54.939 221.927 55.4673C220.61 56.5238 220.082 54.4108 220.346 53.3543C220.873 52.0336 222.191 52.5619 222.454 53.0901Z" fill="#13E7A2"/>
<path d="M197.942 71.5801C197.942 71.5801 175.539 87.1637 169.74 114.633C169.74 114.633 167.895 108.822 169.74 101.955C171.585 95.3518 178.965 76.8627 197.942 71.5801Z" fill="#0D52CE"/>
<path d="M213.756 71.5782C212.702 68.6727 214.283 65.5032 216.392 64.1825C221.663 61.013 222.19 68.6727 220.345 72.3706C218.5 76.3325 214.547 73.163 213.756 71.5782Z" fill="#F79091"/>
</svg>
