<svg width="115" height="150" viewBox="0 0 115 150" fill="none" xmlns="http://www.w3.org/2000/svg">
<g clip-path="url(#clip0)">
<path d="M42.7931 24.7263C42.7931 24.7263 23.605 37.8842 26.7815 46.3001C29.958 54.7159 42.7157 54.7159 46.3829 48.8014C50.0501 42.8868 47.6225 26.8368 42.7931 24.7263Z" fill="#D86313"/>
<path d="M45.6603 2.99634C46.2284 1.38092 46.7191 2.37102 46.7191 2.37102C46.7191 2.37102 47.2614 -0.0260654 47.8554 0.468984C48.4494 0.964034 48.3461 1.22459 48.3461 1.22459C48.3461 1.22459 49.6374 -0.234507 50.2055 0.208432C50.7737 0.651371 50.9286 0.833757 50.9286 0.833757C50.9286 0.833757 51.6776 -0.338728 52.2715 0.130266C52.6331 0.390818 53.2529 0.964034 53.7178 1.38092C54.9057 1.7978 55.8613 2.39707 56.2745 2.81396C58.0048 4.74204 58.6504 8.88483 58.6504 8.88483C58.6504 8.88483 51.0578 9.95309 49.2758 7.55601C49.2758 7.55601 48.3203 7.21729 47.5713 6.48774C47.5455 6.46169 45.0921 4.61177 45.6603 2.99634Z" fill="#101028"/>
<path d="M63.7627 58.5462C63.7627 58.5462 40.1842 58.0772 29.1827 75.1434C22.9588 84.8099 17.0706 114.487 19.0075 131.735C19.8081 138.796 20.9186 143.903 27.4007 143.903C33.7537 143.903 43.2833 91.2976 44.5229 87.7802C47.5961 78.9214 64.6408 82.0741 72.7241 73.6582C85.4301 60.4482 63.7627 58.5462 63.7627 58.5462Z" fill="#23549B"/>
<path d="M44.4716 79.1557C49.0943 69.6716 58.8563 66.2844 58.8563 66.2844C58.8563 66.2844 64.1763 68.3428 64.4346 75.1693C57.6942 76.8368 46.2794 82.6211 44.4974 87.78C44.2392 88.5095 43.6452 91.3235 42.793 95.3099C41.3984 90.4376 42.0957 84.0541 44.4716 79.1557Z" fill="#1D4D87"/>
<path d="M69.806 62.0896C69.806 62.0896 45.6335 78.322 44.523 87.7801C43.9032 93.1735 49.0683 105.55 59.0369 121.001C65.5707 131.136 69.9351 146.118 78.819 143.669C84.0357 142.236 73.1633 101.146 65.2349 90.7243C64.4343 89.6821 65.0025 88.1709 66.2679 87.9625C73.2149 86.7639 83.9583 89.7342 89.3299 83.0641C95.3472 75.6384 91.8608 49.2704 69.806 62.0896Z" fill="#2466D1"/>
<path d="M44.5233 87.7542C44.7816 85.4874 46.3827 82.8037 48.6812 80.0679C49.6109 84.6796 52.4 98.3847 53.6655 102.866C55.1892 108.286 70.8135 127.541 74.9713 132.491C76.5983 134.419 78.4577 136.165 80.1364 137.572C80.343 141.037 79.9814 143.304 78.8193 143.617C69.9354 146.066 65.5709 131.084 59.0371 120.949C49.0686 105.524 43.9035 93.1737 44.5233 87.7542Z" fill="#23549B"/>
<path d="M90.6727 66.3105C91.2409 67.7696 91.6024 69.333 91.7832 70.9223C89.8721 72.0948 85.4044 74.2053 77.5018 74.3877C66.5261 74.6743 58.8818 68.2386 58.8818 68.2386L90.6727 66.3105Z" fill="#1D4D87"/>
<path d="M92.1706 68.6294C93.875 39.7081 82.5377 17.483 78.354 14.6169C67.3266 7.00875 44.3938 16.1541 42.2503 26.472C40.1068 36.6857 63.2462 40.3073 52.0122 60.1093C50.9276 62.0374 59.1142 71.4434 70.3482 72.199C78.4832 72.7461 92.0156 71.0265 92.1706 68.6294Z" fill="#F46D11"/>
<path d="M52.0126 60.0833C63.2466 40.3074 40.1072 36.6857 42.2507 26.446C43.1287 22.225 47.519 18.2125 53.1231 15.4507C52.7099 16.5971 52.2709 18.7597 52.245 22.6159C52.1934 29.729 68.799 44.1375 67.2237 56.618C66.5781 61.7508 64.5637 66.3887 62.3169 70.0885C55.4732 67.014 51.1862 61.5163 52.0126 60.0833Z" fill="#D86313"/>
<path d="M1.36091 33.1564L75.2471 33.2322L75.2125 67.5469L1.32634 67.4712L1.36091 33.1564Z" fill="#D9F1FF"/>
<path d="M56.5577 6.82642L62.8075 13.0536C63.3498 14.0958 59.1661 19.8801 56.8418 19.385C56.1704 19.2287 55.783 18.1604 55.7055 16.8316L55.4473 9.48405L56.5577 6.82642Z" fill="#E2B0A1"/>
<path d="M55.4987 10.9692C56.5575 10.1875 57.9779 9.06714 57.9779 9.06714C57.9779 9.06714 58.8043 10.9692 57.8746 13.1839C57.3839 14.3564 56.5575 15.2162 55.6536 15.7633L55.4987 10.9692Z" fill="#CE9284"/>
<path d="M53.8464 5.10678L57.4877 8.36369C58.5982 9.53617 58.5982 11.3861 57.4619 12.5586C56.558 13.4966 55.8607 13.8874 54.3887 14.5388C53.1749 15.0859 51.9353 14.3043 51.0572 12.7931C49.9209 10.8389 49.4302 8.70241 49.2236 7.52992C48.7846 4.89834 51.2896 3.15264 53.8464 5.10678Z" fill="#E2B0A1"/>
<path d="M57.4877 8.38976L53.8464 4.79414C53.5364 4.55964 53.2265 4.71597 52.9166 4.58569C53.4331 5.36735 54.4662 7.11305 54.4145 7.52994C54.2854 8.62426 53.9238 7.89471 52.5551 8.65031C51.677 9.11931 50.7473 10.2136 50.1533 10.9432C50.3858 11.5685 50.6957 12.1938 51.0572 12.8191C51.9353 14.3304 53.1749 15.086 54.3887 14.5649C55.8607 13.9135 56.558 13.5226 57.4619 12.5847C58.5982 11.4122 58.5982 9.56224 57.4877 8.38976Z" fill="#101028"/>
<path d="M53.1491 9.45801C53.1491 9.45801 52.3486 10.2397 50.9024 10.865C50.9024 10.865 51.3672 11.7769 52.0903 11.7509C52.7876 11.7769 53.4332 10.7087 53.1491 9.45801Z" fill="white"/>
<path d="M53.1749 13.262C54.3112 12.2459 56.4031 13.6268 57.6168 10.422C57.8493 9.82273 57.591 8.85868 57.4102 8.31152L57.4877 8.38969C58.5982 9.56217 58.5982 11.4121 57.4619 12.5846C56.558 13.5226 55.8607 13.9134 54.3887 14.5648C53.6397 14.9035 52.8908 14.7211 52.2193 14.2261C52.4776 14.0958 52.8133 13.5747 53.1749 13.262Z" fill="#1E1240"/>
<path d="M54.6724 6.80047C54.5691 6.51387 54.44 6.22726 54.285 5.96671C54.0009 5.47166 53.691 4.66394 54.6207 4.58578C55.9895 4.48156 57.4099 6.9047 56.3252 7.84268C55.4988 8.54618 54.9048 7.53002 54.6724 6.80047Z" fill="#E2B0A1"/>
<path d="M29.338 140.516C27.9692 140.36 25.3092 140.959 24.3279 140.594C23.3207 140.229 21.7453 138.64 20.0667 138.979C18.3622 139.317 14.9275 142.939 13.6362 143.747C12.3449 144.554 9.11678 145.232 8.52279 146.952C8.52279 147.863 9.40085 148.619 10.4855 148.619L27.7368 148.801C29.2605 148.828 30.5517 147.89 30.7842 146.613C30.9908 145.31 30.7067 140.672 29.338 140.516Z" fill="#101028"/>
<path d="M79.1026 141.688C77.7339 141.532 75.0739 142.131 74.0925 141.766C73.0854 141.402 71.51 139.812 69.8314 140.151C68.1269 140.49 64.6921 144.111 63.4009 144.919C62.1096 145.727 58.8814 146.404 58.2875 148.124C58.2875 149.036 59.1655 149.791 60.2502 149.791L77.5015 149.974C79.0252 150 80.3164 149.062 80.5489 147.785C80.7813 146.456 80.4714 141.845 79.1026 141.688Z" fill="#101028"/>
<path d="M49.4291 11.7768L49.6874 11.6205C50.488 11.1515 50.8753 10.2135 50.6687 9.30157L50.4363 8.36358C50.333 7.89459 49.9198 7.52982 49.455 7.47771C49.1967 7.45165 48.9384 7.50376 48.7318 7.63404L47.0274 8.62413C46.485 8.96285 46.2784 9.66634 46.6142 10.2396L47.1565 11.1775C47.5955 11.9592 48.6285 12.2458 49.4291 11.7768ZM49.3517 7.99881C49.6099 8.02486 49.8165 8.23331 49.894 8.4678L50.1264 9.40579C50.2814 10.0832 49.9973 10.7607 49.4033 11.1254L49.1451 11.2818C48.6027 11.5944 47.9054 11.412 47.5955 10.8649L47.0532 9.9269C46.8724 9.61423 46.9757 9.22341 47.2856 9.06707L48.9901 8.07698C49.0676 8.02486 49.2225 7.99881 49.3517 7.99881Z" fill="white"/>
<path d="M53.7424 9.22343L54.0007 9.0671C54.8013 8.59811 55.0595 7.5559 54.5947 6.74818L54.0523 5.8102C53.7166 5.26304 53.0193 5.05459 52.4512 5.39331L50.7467 6.38341C50.5401 6.51369 50.3593 6.72213 50.256 6.95663C50.0753 7.39957 50.1786 7.94673 50.5401 8.25939L51.2374 8.91077C51.9347 9.58821 52.9419 9.69243 53.7424 9.22343ZM52.7094 5.86231C53.0193 5.67992 53.3809 5.78414 53.5617 6.0968L54.104 7.03479C54.4139 7.58195 54.2331 8.28544 53.6908 8.59811L53.4325 8.75444C52.8386 9.09316 52.0896 9.01499 51.5989 8.546L50.9017 7.89462C50.7209 7.71223 50.6434 7.42562 50.7467 7.19112C50.7984 7.06085 50.9017 6.95663 51.005 6.87846L52.7094 5.86231Z" fill="white"/>
<path d="M50.3079 8.25949C50.3338 8.15526 50.3854 8.12921 50.4112 8.10315L50.6953 7.6081C50.6695 7.6081 50.4371 7.50388 50.2046 7.58205C50.0755 7.63416 49.9206 7.76444 49.8173 8.05104L50.3079 8.25949Z" fill="white"/>
<path d="M56.9195 16.3105L60.7933 11.0474C60.7933 11.0474 64.0214 11.6466 63.9439 13.1578C63.8665 14.643 59.7602 19.9322 58.8305 19.8801C57.9008 19.828 57.2035 19.4372 57.2035 19.4372C57.2035 19.4372 55.5765 21.1568 55.3699 20.4533C55.1633 19.7498 54.9309 15.3986 55.2925 15.4246C55.6282 15.4507 56.9195 16.3105 56.9195 16.3105Z" fill="#D86313"/>
<path d="M70.4002 23.9447C76.0043 29.4163 95.3474 36.347 95.5282 37.7279C95.8897 40.3335 75.1778 49.5831 76.0043 55.2631C76.7015 60.0573 111.876 56.5659 114.665 44.0333C118.564 26.6024 88.0905 15.2944 76.0043 12.8452C67.2495 11.0474 67.6885 21.3131 70.4002 23.9447Z" fill="#E2B0A1"/>
<path d="M114.045 36.0083C115 38.5096 115.284 41.1933 114.664 44.0333C111.875 56.5398 76.7012 60.0312 76.0039 55.2631C75.9006 54.5336 76.1589 53.7259 76.7012 52.866C82.0212 51.6675 90.7243 52.4231 98.8076 49.3486C105.729 46.717 111.023 40.4116 114.045 36.0083Z" fill="#CE9284"/>
<path d="M77.5028 52.5795C77.5028 52.5795 75.8241 49.2444 74.1713 48.9057C72.5185 48.593 68.6964 49.531 69.2129 49.9479C69.7294 50.3908 73.1641 50.1563 73.1641 50.1563C73.1641 50.1563 69.4969 51.407 68.8255 52.3189C68.1282 53.2308 69.5486 54.5336 70.5041 54.7681C71.4338 55.0026 75.7467 57.061 77.3995 56.5659C79.0265 56.0709 77.5028 52.5795 77.5028 52.5795Z" fill="#CE9284"/>
<path d="M97.6722 55.4194C95.4254 50.7034 93.8759 43.4861 93.8759 43.4861L107.692 51.6414C104.8 53.2307 101.288 54.5074 97.6722 55.4194Z" fill="#AD776C"/>
<path d="M87.1348 30.9276C87.9096 33.1684 88.6327 35.5915 89.2783 38.171C83.7517 34.3669 71.6655 25.0652 71.6655 25.0652L87.1348 30.9276Z" fill="#BC5815"/>
<path d="M70.4002 23.9448C67.6885 21.3132 67.2495 11.0475 76.0301 12.8192C88.0905 15.2945 118.564 26.6024 114.665 44.0334C113.683 48.3846 108.777 51.6676 102.759 53.8562C100.435 52.1887 95.7606 48.1501 92.5583 40.7244C94.4177 39.4216 95.6056 38.3794 95.5282 37.728C95.3216 36.3732 75.9784 29.4425 70.4002 23.9448Z" fill="#F46D11"/>
<path d="M70.5814 13.8093C72.0276 14.8255 74.92 16.8578 78.1998 19.4373C82.8742 23.111 100.823 31.3184 101.417 37.3633C101.856 41.975 98.9117 46.7431 97.4655 48.8015C95.761 46.7431 94.0307 44.0855 92.5845 40.7244C94.4439 39.4216 95.6319 38.3794 95.5544 37.728C95.3737 36.3732 76.0305 29.4425 70.4264 23.9448C68.4637 22.0688 67.6889 16.3367 70.5814 13.8093Z" fill="#D86313"/>
<path d="M0.568766 45.3881C0.568766 45.3881 1.6276 40.6982 2.50565 41.5319C3.38371 42.3657 1.26604 46.5606 1.96332 45.8571C2.6606 45.1536 4.31342 42.965 4.54584 44.1114C4.77827 45.2578 5.29478 48.7753 3.48702 49.9478C1.65343 51.1203 0.672068 52.7357 0.207215 51.1203C-0.257638 49.5309 0.0522623 47.3162 0.568766 45.3881Z" fill="#CE9284"/>
<path d="M57.5645 45.7534L60.6378 49.8441V49.9223L55.7568 49.2709V51.4856L60.6378 50.9124V50.9905L57.5129 54.8988L59.5531 56.0713L61.49 51.4856H61.5675L63.6593 56.0973L65.5187 54.9249L62.4455 50.9384V50.8602L67.249 51.4856V49.2709L62.4972 49.8962V49.818L65.5446 45.8316L63.5818 44.6852L61.5675 49.2188H61.49L59.5273 44.6331L57.5645 45.7534Z" fill="#311E69"/>
<path d="M42.0948 45.7271L45.168 49.8177V49.8959L40.2871 49.2445V51.4592L45.168 50.886V50.9642L42.0432 54.8725L44.0834 56.0449L46.0203 51.4592H46.0977L48.1896 56.071L50.049 54.8985L46.9758 50.9121V50.8339L51.7793 51.4592V49.2445L47.0274 49.8698V49.7917L50.0748 45.8052L48.1121 44.6588L46.0977 49.1924H46.0203L44.0575 44.6067L42.0948 45.7271Z" fill="#311E69"/>
<path d="M26.6261 45.7271L29.6993 49.8177V49.8959L24.8183 49.2445V51.4592L29.6993 50.886V50.9642L26.5744 54.8725L28.6146 56.0449L30.5515 51.4592H30.629L32.7208 56.071L34.5803 54.8985L31.5071 50.9121V50.8339L36.3105 51.4592V49.2445L31.5587 49.8698V49.7917L34.6061 45.8052L32.6434 44.6588L30.629 49.1924H30.5515L28.5888 44.6067L26.6261 45.7271Z" fill="#311E69"/>
<path d="M11.1563 45.7009L14.2295 49.7916V49.8698L9.34857 49.2184V51.4331L14.2295 50.8599V50.938L11.1047 54.8463L13.1449 56.0188L15.0818 51.4331H15.1593L17.2511 56.0449L19.1105 54.8724L16.0373 50.8859V50.8078L20.8408 51.4331V49.2184L16.089 49.8437V49.7656L19.1364 45.7791L17.1736 44.6327L15.1593 49.1663H15.0818L13.1191 44.5806L11.1563 45.7009Z" fill="#311E69"/>
</g>
<defs>
<clipPath id="clip0">
<rect width="115" height="150" transform="matrix(-1 0 0 1 115 0)" fill="white"/>
</clipPath>
</defs>
</svg>
