<svg width="223" height="467" viewBox="0 0 223 467" fill="none" xmlns="http://www.w3.org/2000/svg">
<path d="M114.308 446.889C102.634 402.164 94.2175 200.761 94.2175 200.761C94.2175 200.761 49.4211 196.37 49.4211 194.724C32.317 194.724 17.3849 193.352 10.5976 192.803C9.7831 195.547 8.96862 198.565 8.15414 201.858C0.823819 226.005 1.90979 288.291 3.53875 318.2C6.79667 385.426 16.2989 416.158 20.0998 443.322C20.6428 447.713 20.0998 452.103 18.1994 455.944C16.8419 458.688 15.7559 461.707 17.1134 463.353C20.6428 468.292 52.9505 466.097 52.679 464.451C52.679 457.591 47.2492 454.024 43.1768 452.103C40.4618 451.005 39.1044 447.987 39.3759 445.243C40.1903 439.481 41.0048 432.621 41.2763 428.231C43.1768 390.914 53.4935 295.7 53.765 271.553L66.5252 341.249C66.5252 341.249 66.2537 364.023 69.5116 379.115C76.0275 410.67 91.7741 443.322 92.3171 447.713C93.1315 454.572 90.6881 461.707 91.7741 463.079C95.3035 468.018 136.57 465.822 136.299 464.176C136.027 456.219 116.208 454.572 114.308 446.889Z" fill="#F79091"/>
<path d="M55.9374 46.553L52.6795 58.3518C51.865 62.1933 54.3084 66.3091 58.3808 67.1323C61.3673 67.9555 63.5392 67.6811 67.3401 67.1323C70.598 66.5835 72.227 63.2908 71.9555 58.9006C71.684 53.1384 70.0551 48.1993 68.6976 45.4554C66.2542 39.4188 58.6523 39.1444 55.9374 46.553Z" fill="#F79091"/>
<path d="M57.5664 76.1873C57.5664 76.1873 113.223 28.1688 122.453 33.6567C131.684 39.1445 91.7746 92.6508 81.1863 97.8642C70.3266 103.352 57.5664 76.1873 57.5664 76.1873Z" fill="#DD7A7F"/>
<path d="M52.6801 58.352V58.0776C53.2231 60.8215 55.395 63.0167 58.1099 63.5654C61.0964 64.3886 63.2683 64.1142 67.0692 63.5654C69.7841 63.0167 71.1416 60.8215 71.6846 57.8032C71.6846 58.0776 71.6846 58.6264 71.6846 58.9008C71.9561 63.291 70.3271 66.5837 67.0692 67.1325C63.2683 67.6813 61.0964 67.9557 58.1099 67.1325C54.309 66.035 51.8656 62.1935 52.6801 58.352Z" fill="#DD7A7F"/>
<path d="M54.5803 54.5103L47.793 74.8152C52.6798 83.3213 69.2409 76.4615 67.612 73.7176L58.3812 57.8029L54.5803 54.5103Z" fill="#F79091"/>
<path d="M56.208 64.6629C56.208 64.6629 50.7781 64.9373 49.1492 59.7239C47.2487 54.5104 44.8053 46.2787 46.4342 42.7116C47.7917 39.4189 51.0496 32.2848 57.837 31.4616C80.0994 28.1689 70.0541 52.3153 68.4252 53.4129C66.2532 54.5104 63.2668 64.6629 56.208 64.6629Z" fill="#282828"/>
<path d="M37.7471 449.359C38.5616 449.634 39.3761 449.634 40.1906 449.634C39.3761 448.262 39.1046 446.89 39.3761 445.243C40.1906 439.481 41.005 432.621 41.2765 428.231C42.9055 397.499 50.2358 327.255 52.9508 290.212C51.8648 289.664 50.5073 289.664 48.6069 290.212C38.0186 293.231 31.5028 316.554 34.2177 329.725C36.9326 342.895 42.091 346.737 35.5752 356.066C29.0593 365.67 34.4892 408.749 34.4892 408.749C34.4892 408.749 30.9598 446.067 37.7471 449.359Z" fill="#DD7A7F"/>
<path d="M95.8477 238.078C90.4178 247.682 82.0015 264.694 82.273 279.511C82.816 301.462 98.5626 337.133 95.0332 352.774C91.7753 368.688 101.82 434.542 103.449 440.853C103.992 442.774 107.793 442.774 112.952 442.225C105.078 404.634 98.8341 295.975 95.8477 238.078Z" fill="#DD7A7F"/>
<path d="M64.6256 31.187C65.7116 35.0285 67.3406 43.2602 64.6256 45.4554C61.9107 47.9249 51.3225 50.12 45.6211 46.8273C45.8926 50.9432 47.5215 55.8822 48.879 59.7237C50.7795 64.9371 55.9378 64.6627 55.9378 64.6627C62.9966 64.6627 65.9831 54.5103 67.8835 53.4127C69.5125 52.0407 77.3858 33.6565 64.6256 31.187Z" fill="black"/>
<path d="M94.4902 207.072C94.7617 166.736 117.839 91.2787 95.5761 80.0287C62.9969 63.5652 28.7888 68.7787 13.5852 86.8885C5.44039 96.4922 13.3137 168.108 6.79785 206.797C16.5716 210.365 91.7752 218.596 94.4902 207.072Z" fill="#F79091"/>
<path d="M196.57 37.7724L158.832 18.565V17.1931C158.832 14.4492 157.474 11.9796 155.303 10.3333C153.131 8.68694 152.316 6.7662 153.402 4.57107C154.217 2.65033 155.574 1.55277 157.203 2.10155C158.289 2.37594 159.375 3.47351 159.375 4.02229C159.375 4.57107 159.646 5.11985 160.189 5.11985C160.732 5.11985 161.275 4.84546 161.275 4.29668C161.547 2.65033 159.918 0.729596 157.746 0.180813C156.932 -0.0935777 153.674 -0.64236 151.773 3.7479C150.416 6.7662 151.502 9.51011 154.488 11.9796C156.117 13.3516 157.203 15.2723 157.203 17.1931V18.565L117.565 38.5956C116.208 39.1444 115.665 40.7907 115.936 42.1627C116.208 43.5346 117.565 44.6322 118.922 44.6322L195.484 44.0834C196.841 44.0834 198.198 42.9858 198.47 41.6139C198.47 39.9675 197.655 38.5956 196.57 37.7724ZM196.298 40.7907C196.298 41.0651 195.755 41.6139 195.212 41.6139L118.651 42.1627C118.108 42.1627 117.565 41.6139 117.565 41.3395C117.565 41.0651 117.565 40.5163 118.108 40.2419L158.017 20.2114L195.755 39.6931C196.027 39.9675 196.298 40.5163 196.298 40.7907Z" fill="#D8E7EB"/>
<path d="M143.357 25.4248C143.357 25.4248 158.561 36.6748 172.136 25.4248C172.136 25.4248 199.828 33.3821 203.086 40.7907C206.344 48.1993 222.362 93.4738 222.362 93.4738L203.086 104.175L198.199 99.7848L196.298 154.114C196.298 154.114 175.122 168.931 148.787 165.913C122.181 162.895 110.235 154.937 110.235 154.937L114.036 86.8884L109.964 99.5104C109.964 99.5104 86.0722 87.4372 91.5021 76.1872C91.5021 76.1872 103.991 33.1078 143.357 25.4248Z" fill="#13E7A2"/>
<path d="M203.086 40.7906C201.457 36.9491 192.769 32.8332 185.167 29.8149C185.439 32.0101 185.439 34.2052 185.439 36.4003C184.896 46.004 188.968 58.0772 188.968 66.8577C188.968 75.9127 179.466 76.4614 179.466 76.4614C179.466 76.4614 162.905 89.6322 158.29 95.9432C153.674 102.254 165.62 118.169 163.177 127.224C160.733 136.004 138.742 144.785 128.697 140.12C122.724 137.376 115.937 140.12 111.321 142.864L109.964 155.212C109.964 155.212 121.91 163.169 148.516 166.187C175.122 169.206 196.027 154.389 196.027 154.389L197.928 100.059L202.815 104.449L222.091 93.7481C222.362 93.4737 206.072 47.9248 203.086 40.7906Z" fill="#15CC8A"/>
<path d="M68.1535 54.236C68.1535 54.236 68.1535 49.8458 66.2531 51.2177C64.3526 52.5897 65.4386 58.0775 66.5246 58.3519C67.6105 58.9007 68.1535 56.4312 68.1535 54.236Z" fill="#DD7A7F"/>
<path d="M181.638 44.9065C181.638 44.9065 176.208 42.9858 178.109 35.0284C180.009 27.3455 185.167 24.6016 188.425 24.876C191.683 25.1503 196.027 27.3455 195.213 28.1686C194.398 28.9918 189.24 30.3638 188.968 31.1869C188.697 32.2845 189.24 46.0041 181.638 44.9065Z" fill="#F79091"/>
<path d="M97.7461 116.522C97.7461 116.522 99.1036 129.693 102.904 137.925C103.719 131.065 104.533 124.205 105.076 117.894L97.7461 116.522Z" fill="#DD7A7F"/>
<path d="M91.7745 78.3823C121.639 86.8884 153.132 105.547 153.132 105.547C153.132 105.547 167.25 38.87 182.182 36.9492C197.114 35.0285 187.34 131.34 165.078 139.846C142.815 148.352 97.7474 123.108 97.7474 123.108C97.7474 123.108 81.7293 75.6384 91.7745 78.3823Z" fill="#F79091"/>
<path d="M63.5391 326.706L65.711 338.231C73.3128 337.682 93.4033 334.938 96.3898 326.706C99.3762 318.749 74.6703 323.963 63.5391 326.706Z" fill="#C6636D"/>
<path d="M3.53906 321.493C3.81056 327.804 4.35355 333.566 4.62504 339.328C13.3128 339.877 33.1318 340.426 39.6477 335.761C46.435 330.822 16.5707 323.962 3.53906 321.493Z" fill="#C6636D"/>
<path d="M94.2177 200.761C94.2177 200.761 49.4213 196.645 49.4213 194.724C32.3173 194.724 17.3852 193.352 10.5978 192.803C9.78335 195.547 8.96887 198.565 8.15439 201.858C0.824071 226.005 0.00958747 286.371 1.63855 316.554C1.91004 320.121 2.18154 325.334 2.45303 328.901C8.96887 334.663 25.8014 341.523 50.7788 333.017C53.2222 306.676 53.7652 282.255 53.7652 272.102L58.9236 332.743C70.0548 334.389 93.6747 332.743 103.72 322.041C99.6476 259.755 94.2177 200.761 94.2177 200.761Z" fill="#1556E8"/>
<path d="M116.209 34.4797C116.209 34.4797 122.453 31.4614 124.625 31.4614C126.797 31.4614 127.883 32.8334 129.512 32.2846C131.141 31.7358 131.141 33.9309 129.512 34.4797C127.883 35.0285 125.711 35.0285 124.625 35.8517C123.539 36.4005 117.837 39.1444 115.394 38.3212C112.951 37.2236 116.209 34.4797 116.209 34.4797Z" fill="#DD7A7F"/>
<path d="M94.2172 200.761C94.2172 200.761 72.2262 198.566 58.9231 196.645C41.819 198.566 25.8009 201.31 22 204.602C22 204.602 55.3937 227.102 68.1538 230.67C81.1855 233.962 80.6425 266.34 83.3574 288.84C84.9864 302.834 86.6154 318.749 87.4298 329.999C93.9457 328.353 99.647 325.334 103.448 321.219C99.647 259.755 94.2172 200.761 94.2172 200.761Z" fill="#0D52CE"/>
<path d="M70.5988 213.109C83.359 205.426 30.4178 199.663 9.24136 197.743C8.96987 199.115 8.42688 200.487 7.8839 201.859C6.52643 205.974 5.44046 211.462 4.62598 217.499C19.8296 218.596 58.1101 220.791 70.5988 213.109Z" fill="#0A4D9E"/>
<path d="M94.4902 207.072C94.7617 188.962 99.377 163.992 102.635 140.669C98.2911 137.102 83.6304 123.931 83.6304 109.663C83.6304 97.864 87.7028 84.1444 90.1463 77.2847C84.4449 74.8151 79.015 73.1688 73.3137 71.7968C71.4132 75.3639 64.0829 79.2054 57.8386 80.303C49.9653 81.4005 42.3635 77.0103 41.2775 71.248C35.8476 72.3456 30.6892 74.2663 26.3454 76.4615C23.6304 83.3213 14.3997 108.291 9.51278 124.206C9.51278 150.273 10.5988 183.748 6.79785 206.249C16.5716 210.364 91.7752 218.596 94.4902 207.072Z" fill="white"/>
<path d="M94.4892 207.072C94.7607 188.962 99.376 163.992 102.634 140.669C99.376 137.925 89.6023 129.145 85.5299 118.718C83.9009 126.126 81.186 136.828 77.9281 144.511C72.4982 157.681 67.8828 153.017 62.7244 168.108C58.3805 181.279 43.1769 196.37 38.5615 211.736C63.2674 213.932 92.8602 214.206 94.4892 207.072Z" fill="#D8E7EB"/>
<path d="M187.882 43.2603C185.71 46.5529 184.353 50.9432 184.082 52.5896C183.81 56.1566 177.566 80.3031 177.566 80.3031C177.566 80.3031 172.95 94.8458 171.593 111.035C170.235 127.224 161.548 130.517 145.258 130.791C128.968 131.065 133.312 128.322 123.81 125.029C117.023 122.834 112.136 126.675 109.964 129.145C124.896 136.004 150.145 145.334 165.077 139.846C183.81 132.712 193.855 64.3884 187.882 43.2603Z" fill="#DD7A7F"/>
<path d="M26.0732 271.279C28.5167 283.078 32.3176 327.255 29.6026 336.584C35.847 336.31 42.9058 335.212 50.5076 332.743C52.951 306.401 53.494 281.981 53.494 271.828C52.408 268.261 24.1728 261.95 26.0732 271.279Z" fill="#0D52CE"/>
</svg>
