<svg width="224" height="249" viewBox="0 0 224 249" fill="none" xmlns="http://www.w3.org/2000/svg">
<path d="M69.7997 4.6773C74.8737 4.06188 77.7201 4.92347 77.9676 7.26208C78.3389 9.60069 76.3588 12.1855 76.3588 12.1855C76.3588 12.1855 81.0616 18.0935 81.0616 25.4786C81.1853 31.2636 75.8638 36.9255 64.3544 36.9255C48.266 36.9255 49.1323 24.3708 50.6174 20.5552C52.2262 16.6165 58.7853 6.15432 69.7997 4.6773Z" fill="#282828"/>
<path d="M59.4041 21.9091C55.6914 20.0629 54.0826 17.6012 53.34 15.6318C51.9787 17.6012 51.1124 19.3244 50.6174 20.4321C49.1323 24.2477 48.266 36.8024 64.3544 36.8024C75.8638 36.8024 81.1853 31.1405 81.0616 25.3555C80.9378 17.9704 76.3588 12.0624 76.3588 12.0624C76.3588 12.0624 66.3345 25.4786 59.4041 21.9091Z" fill="black"/>
<path d="M69.7998 30.156C69.7998 30.156 106.556 45.0492 109.402 66.8352C112.248 88.6211 87.8683 75.8204 82.918 69.2969C77.9678 62.7734 70.0473 34.9563 69.7998 30.156Z" fill="#F79091"/>
<path d="M105.689 68.3121C107.174 68.9275 108.411 68.4352 109.401 67.5736C111.629 88.3749 87.7439 75.8203 82.7936 69.2968C80.566 66.3428 77.7195 59.0808 75.3682 51.5726C83.5361 61.5425 93.4367 70.2815 97.5207 71.2661C104.327 72.9893 105.689 68.3121 105.689 68.3121Z" fill="#DD7A7F"/>
<path d="M7.30232 240.138C11.3863 238.046 12.0051 233.738 12.0051 233.738C12.0051 233.738 34.5288 111.392 34.9001 103.514C35.5189 89.1134 40.5929 80.8667 45.5432 74.9587C51.3598 75.0818 58.1664 75.0818 64.973 74.3432C73.0172 73.4817 81.0614 71.8816 87.4968 68.8044C89.6007 75.0818 91.952 82.8361 94.6747 92.5597C105.565 130.47 82.9178 233.738 82.9178 233.738C82.9178 233.738 82.1752 237.43 82.4228 237.923C82.5465 238.169 85.2692 239.03 87.373 240.138C88.3631 241 89.2294 242.107 88.2393 242.354C86.5067 242.969 75.9874 242.969 74.9973 241.246C74.6261 240.63 74.2548 240.261 73.7598 239.892C75.1211 237.799 69.7996 128.5 65.4681 102.653C65.4681 102.653 55.815 185.365 20.5443 233.738C19.8018 236.199 19.4305 237.799 20.7918 239.892C20.2968 240.261 19.9255 240.754 19.5543 241.246C18.5642 242.969 8.16862 242.969 6.31227 242.354C5.44597 241.984 6.43603 241 7.30232 240.138Z" fill="#F79091"/>
<path d="M19.6778 241.246C18.6877 242.969 8.29215 242.969 6.43579 242.354C5.44574 241.984 6.31204 241 7.30209 240.138C4.08441 241.738 0.124193 243.954 0.000436188 245.062C-0.247078 246.908 18.8115 246.785 21.9054 245.062C23.5142 244.077 22.4004 242.107 20.9153 239.892C20.4203 240.138 20.0491 240.63 19.6778 241.246Z" fill="#1556E8"/>
<path d="M79.4524 149.425C79.8237 161.61 76.606 198.658 87.6204 209.859C85.0215 224.26 82.9176 233.738 82.9176 233.738C82.9176 233.738 82.1751 237.43 82.4226 237.922C82.5463 238.169 85.269 239.03 87.3728 240.138C88.3629 241 89.2292 242.107 88.2391 242.353C86.5065 242.969 75.9872 242.969 74.9971 241.246C74.6259 240.63 74.2546 240.261 73.7596 239.892C74.8734 238.292 72.027 174.903 68.6855 133.177C72.7695 135.27 79.0811 140.193 79.4524 149.425Z" fill="#DD7A7F"/>
<path d="M7.30232 240.138C11.3863 238.046 12.0051 233.738 12.0051 233.738C12.0051 233.738 23.762 170.103 30.3211 131.701C32.5487 134.532 34.4051 137.362 35.1476 139.332C37.2515 145.24 21.7819 207.398 24.6283 215.521C25.4946 218.229 26.9797 220.075 28.5885 221.552C26.1134 225.86 23.3907 229.922 20.5443 233.861C19.8018 236.322 19.4305 237.923 20.7918 240.015C20.2968 240.384 19.9255 240.877 19.5543 241.369C18.5642 243.092 8.16862 243.092 6.31227 242.477C5.44597 241.984 6.43603 241 7.30232 240.138Z" fill="#DD7A7F"/>
<path d="M88.7342 152.625L70.6657 160.256C70.5419 157.302 70.2944 154.471 70.0469 151.64L88.7342 152.625Z" fill="#C6636D"/>
<path d="M47.5222 154.594L26.1123 156.318C26.6073 153.61 27.1024 150.902 27.5974 148.317L47.5222 154.594Z" fill="#C6636D"/>
<path d="M32.6722 102.653C35.8899 75.574 53.0921 71.266 55.0722 61.4193C56.186 55.7574 52.5971 47.1415 50.8645 40.2487C49.5031 35.3254 43.8103 33.1098 51.9783 29.2942C56.4335 27.2018 61.0125 25.7248 65.344 27.8172C67.3241 28.8019 77.2247 30.1558 78.7098 37.1716C79.5761 41.1103 77.9672 45.9106 78.7098 48.6185C81.4324 57.9729 88.4866 62.2809 96.0357 91.6981C97.7683 98.2215 100.367 122.592 96.0357 149.794C89.8479 153.24 79.3286 154.102 66.3341 154.964C63.7352 155.087 30.0733 155.456 18.3164 147.455C23.638 141.67 30.1971 123.823 32.6722 102.653Z" fill="#F0F8FA"/>
<path d="M63.7352 19.9396L61.5076 27.817C61.1363 29.1709 63.4877 33.2327 65.9628 32.1249C66.7054 31.7557 66.3341 29.7863 66.2103 28.3093L66.4579 21.1704L63.7352 19.9396Z" fill="#F79091"/>
<path d="M66.3343 25.4786C64.7254 24.4939 63.7354 21.5399 63.7354 21.5399L66.458 22.2784L66.3343 25.4786Z" fill="#DD7A7F"/>
<path d="M96.1598 91.8214C88.4868 62.4042 81.4327 57.9731 78.8338 48.7418C78.0913 46.0339 79.7001 41.2336 78.8338 37.2949C77.72 32.2485 72.3984 30.0329 68.6857 28.9252C70.2946 31.8792 72.1509 36.5564 72.1509 42.2183C72.1509 51.942 68.1907 59.6963 73.0172 68.3122C77.1012 75.9435 76.7299 126.285 65.5918 155.21C66.0868 155.21 66.4581 155.21 66.5819 155.21C79.4526 154.348 90.0957 153.487 96.2835 150.04C100.491 122.716 97.7686 98.4679 96.1598 91.8214Z" fill="#D8E7EB"/>
<path d="M71.0372 18.5859C71.161 18.3397 71.161 18.0936 71.2848 17.8474C71.4085 17.3551 71.656 16.6166 72.3986 17.1089C73.3886 17.8474 72.7698 20.5553 71.4085 20.5553C70.4185 20.4322 70.7897 19.2013 71.0372 18.5859Z" fill="#DD7A7F"/>
<path d="M65.096 14.8934L63.8584 17.8474C62.8684 20.186 63.7347 22.8939 66.0861 24.0016C68.1899 24.9863 70.6651 24.2478 71.7789 21.5399C72.7689 19.0783 71.5314 16.4935 71.1601 15.2626C70.2938 12.3086 66.8286 11.6932 65.096 14.8934Z" fill="#F79091"/>
<path d="M64.4772 17.8474C64.4772 17.6012 64.4772 17.2319 64.4772 16.9858C64.4772 16.4934 64.4772 15.6318 63.6109 16.0011C62.3733 16.4934 62.2496 19.3244 63.6109 19.5705C64.4772 19.8167 64.4772 18.4628 64.4772 17.8474Z" fill="#F79091"/>
<path d="M66.9531 19.9396C66.9531 19.9396 68.1907 20.3088 69.9233 20.3088C69.9233 20.3088 69.3045 21.5397 68.562 21.9089C67.9432 22.1551 67.2006 21.2935 66.9531 19.9396Z" fill="white"/>
<path d="M74.9976 241.246C75.9877 242.969 86.3833 242.969 88.2396 242.354C89.2297 241.984 88.3634 241 87.3733 240.138C90.591 241.738 94.5512 243.954 94.675 245.062C94.9225 246.908 75.8639 246.785 72.77 245.062C71.1612 244.077 72.275 242.107 73.7601 239.892C74.2551 240.138 74.7501 240.63 74.9976 241.246Z" fill="#1556E8"/>
<path d="M52.5978 29.6634C46.905 28.1864 17.9458 52.9264 24.505 70.8967C32.9204 93.7904 84.7746 76.1894 89.6011 66.0964C94.3038 56.0035 77.7204 59.696 73.884 60.1884C70.0475 60.6807 51.1127 64.8656 47.6475 62.7731C44.0586 60.5576 59.7757 31.5097 52.5978 29.6634Z" fill="#F79091"/>
<path d="M34.6525 42.0948C30.5685 48.7414 28.4647 56.0034 30.816 62.4038C37.8702 81.605 75.7398 72.2506 90.3431 62.7731C90.3431 63.6346 90.0956 64.7424 89.4768 65.9733C84.774 76.0662 32.7961 93.6673 24.3807 70.7736C21.0392 61.5422 27.2271 50.4646 34.6525 42.0948Z" fill="#DD7A7F"/>
<path d="M88.7347 63.2655C88.611 61.6654 90.7148 57.8498 91.9524 57.7267C93.3137 57.6036 93.5612 62.8963 91.9524 64.6195C90.5911 66.3427 88.8585 64.1271 88.7347 63.2655Z" fill="#F79091"/>
<path d="M92.8185 53.419L96.655 53.7882C97.15 53.7882 97.5213 54.2806 97.5213 54.7729L96.7787 63.2657C96.7787 63.7581 96.2837 64.1273 95.7887 64.1273L91.9522 63.7581C91.4572 63.7581 91.0859 63.2657 91.0859 62.7734L91.8285 54.2806C91.8285 53.6651 92.1998 53.2959 92.8185 53.419Z" fill="#1556E8"/>
<path d="M105.689 68.3119C105.689 68.3119 102.967 64.004 99.5015 62.1577C95.9126 60.3114 95.665 60.3114 95.665 60.3114L95.9125 59.2036C95.9125 59.0806 104.576 62.65 105.689 68.3119Z" fill="#DD7A7F"/>
<path d="M95.7883 62.1579C94.922 61.5425 94.1795 59.9424 93.932 58.7116C93.5607 55.8806 95.7883 58.4654 96.6546 59.5732C96.9021 59.9424 96.5309 59.2039 97.0259 58.3423L97.1497 58.0962C97.1497 58.0962 97.8922 60.3117 98.7585 62.281C98.7585 62.281 97.8922 63.5119 95.7883 62.1579Z" fill="#F79091"/>
<path d="M131.926 99.0832C144.178 105.484 160.266 84.9285 158.657 84.5592C151.108 83.0822 135.762 66.2196 134.277 61.0501C132.545 55.6344 160.761 48.2493 171.528 39.6334C182.419 30.8944 177.592 24.8632 170.29 25.6017C154.945 27.0788 125.119 37.664 117.446 54.1574C110.763 68.189 119.674 92.6828 131.926 99.0832Z" fill="#1556E8"/>
<path d="M139.104 46.7721C128.461 56.9881 127.347 67.5733 130.813 75.4507C133.164 80.8665 130.318 88.7439 124.501 92.4364C126.729 95.2674 129.204 97.606 131.926 98.9599C144.178 105.36 160.267 84.8052 158.658 84.4359C151.109 82.9589 135.763 66.0963 134.278 60.9268C132.545 55.5111 160.762 48.126 171.529 39.5101C176.108 35.8175 177.964 32.6173 177.84 30.1556C169.053 32.4942 147.52 38.7716 139.104 46.7721Z" fill="#0D52CE"/>
<path d="M168.558 14.524C168.558 14.524 168.434 7.26205 170.786 4.30803C177.592 -4.55406 185.637 2.46176 188.483 5.41579C191.329 8.36982 191.082 15.1395 195.166 17.4781C199.25 19.6936 199.25 16.3703 204.943 19.4474C210.635 22.6476 208.903 25.6016 209.15 29.1711C209.398 32.7405 216.576 29.9096 221.031 35.2022C225.362 40.4949 223.382 57.1113 205.19 58.219C185.018 59.4499 164.845 33.7252 168.558 14.524Z" fill="#EF7820"/>
<path d="M202.096 31.0174C193.061 27.571 186.75 24.9863 185.76 19.3244C184.77 13.6625 184.151 6.76975 178.953 5.53891C177.963 5.29274 175.24 3.81572 172.765 2.46179C172.147 2.95413 171.528 3.69264 170.909 4.43114C168.558 7.38517 168.681 14.6472 168.681 14.6472C164.969 33.8484 185.017 59.6961 205.437 58.3422C220.412 57.4806 224.372 45.9106 222.887 38.8948C222.021 39.5102 220.659 40.1257 218.679 40.618C210.14 42.7104 211.13 34.4638 202.096 31.0174Z" fill="#D66E3A"/>
<path d="M195.66 180.073C195.66 180.073 173.879 171.457 156.429 175.273C156.429 175.273 151.726 116.315 156.553 100.56C161.379 84.8053 174.992 83.5745 178.705 88.9902C182.418 94.4059 195.66 180.073 195.66 180.073Z" fill="#0D52CE"/>
<path d="M137.99 104.007C138.485 93.6674 145.168 90.221 148.633 80.005C149.129 78.6511 152.222 69.6659 152.594 68.312C159.029 48.6185 157.544 42.095 164.103 32.1251C170.043 23.14 176.231 24.7401 182.543 28.6788C189.473 32.9867 178.459 50.834 180.439 60.8038C181.429 65.4811 185.761 69.0505 190.216 74.4662C197.27 82.7129 200.611 92.9289 201.106 103.637C201.478 111.638 200.364 236.322 200.364 236.322H193.31C190.216 224.26 169.796 102.653 169.796 102.653C163.237 116.93 158.905 236.322 158.905 236.322H152.222C152.222 236.199 132.916 148.686 137.99 104.007Z" fill="#F0F8FA"/>
<path d="M180.191 134.408C183.162 145.117 184.894 165.18 190.463 170.842C193.928 174.534 198.26 173.549 200.859 172.319C200.611 204.69 200.364 236.199 200.364 236.199H193.31C190.216 224.137 169.796 102.53 169.796 102.53C173.385 101.914 177.221 123.7 180.191 134.408Z" fill="#D8E7EB"/>
<path d="M148.757 79.882C149.252 78.5281 152.346 69.5429 152.717 68.189C155.564 59.45 156.801 53.2958 157.915 48.2493C161.504 47.2646 164.846 47.3877 167.816 49.3571C167.816 49.3571 152.841 99.2063 150.366 111.392C148.757 119.269 141.951 161.856 143.312 167.149C147.025 180.934 157.544 181.304 161.752 177.734C160.019 208.259 159.029 236.199 159.029 236.199H152.222C152.222 236.199 132.916 148.686 137.99 104.007C138.485 93.6675 145.292 90.0981 148.757 79.882Z" fill="#D8E7EB"/>
<path d="M151.602 70.2814C158.038 50.5879 157.666 42.095 164.225 32.0021C170.166 23.0169 176.354 24.617 182.665 28.5557C189.596 32.8637 178.581 50.7109 180.561 60.6808C181.551 65.358 185.883 68.9275 190.338 74.3432C192.442 76.8049 194.175 79.5127 195.66 82.3437C186.997 84.0669 150.241 74.4663 151.602 70.2814Z" fill="#13E7A2"/>
<path d="M179.2 28.6788C179.2 28.6788 170.413 50.2186 175.735 73.4816C181.18 96.7446 190.957 172.195 191.576 182.781C191.576 182.781 212.615 180.442 219.792 175.272C219.792 175.272 206.427 95.3906 200.486 84.5592C194.546 73.7277 185.017 67.4504 183.655 61.4193C182.294 55.3882 188.234 37.9101 186.997 32.3713C185.759 26.9556 179.819 25.9709 179.819 25.9709L179.2 28.6788Z" fill="#1556E8"/>
<path d="M175.612 25.4788C175.612 25.4788 170.909 24.1248 167.444 27.0789C163.979 30.156 150.861 38.4026 153.831 55.8806C155.564 65.9736 121.902 98.3448 134.896 167.764L151.603 178.596C151.603 178.596 139.351 117.546 155.192 71.5124C157.915 63.3888 175.612 25.4788 175.612 25.4788Z" fill="#1556E8"/>
<path d="M179.572 19.2013L179.696 27.448C179.696 28.8019 176.354 32.3713 174.127 30.6482C173.508 30.1558 174.374 28.3095 174.869 26.8325L176.478 19.6936L179.572 19.2013Z" fill="#F79091"/>
<path d="M175.612 23.8787C177.345 23.3863 179.201 20.6785 179.201 20.6785H176.355L175.612 23.8787Z" fill="#DD7A7F"/>
<path d="M179.572 13.9087L180.067 17.1089C180.439 19.6936 178.83 22.1553 176.355 22.6477C174.003 23.0169 171.776 21.663 171.404 18.832C171.157 16.2473 173.013 13.9087 173.632 12.8009C175.117 9.96996 178.706 10.2161 179.572 13.9087Z" fill="#F79091"/>
<path d="M179.448 16.8627C179.571 16.6165 179.571 16.3704 179.695 16.0011C179.819 15.5088 180.066 14.6472 180.809 15.2626C181.923 16.0011 181.304 18.832 179.943 18.832C178.829 18.832 179.2 17.6012 179.448 16.8627Z" fill="#F79091"/>
<path d="M172.89 15.755C172.89 15.5088 172.89 15.1395 172.89 14.8934C172.89 14.401 172.89 13.5394 172.024 13.9087C170.786 14.401 170.786 17.232 172.147 17.6012C173.014 17.7243 172.89 16.4935 172.89 15.755Z" fill="#F79091"/>
<path d="M175.736 18.4628C175.736 18.4628 174.127 18.4628 172.395 18.2167C172.395 18.2167 172.766 18.9552 173.756 19.0783C174.498 19.0783 175.488 18.709 175.736 18.4628Z" fill="white"/>
<path d="M147.643 242.723C149.871 241.615 152.593 240.754 152.717 240.507C152.965 239.892 152.222 236.199 152.222 236.199H159.029C159.152 238.046 160.019 240.384 161.38 242.477C162.989 244.815 164.103 246.785 162.37 247.769C159.152 249.616 139.723 249.616 139.97 247.769C140.218 246.539 144.302 244.446 147.643 242.723Z" fill="#282828"/>
<path d="M200.363 84.6823C199.002 82.2206 197.393 79.882 195.784 77.9126C199.373 109.545 203.581 147.578 203.581 155.825C203.581 162.718 205.808 171.949 208.16 179.827C212.739 178.719 217.07 177.242 219.669 175.396C219.669 175.396 206.304 95.5137 200.363 84.6823Z" fill="#0D52CE"/>
<path d="M191.33 242.477C192.691 240.384 193.186 238.046 193.31 236.199H200.364C200.364 236.199 199.869 238.538 201.106 240.507C201.601 241.369 203.087 241.984 205.19 242.846C208.532 244.569 212.492 246.662 212.74 247.769C212.987 249.616 193.557 249.616 190.34 247.769C188.607 246.785 189.845 244.692 191.33 242.477Z" fill="#282828"/>
<path d="M183.161 27.5712C183.161 27.5712 197.517 37.1718 206.799 62.6503C216.204 88.1288 222.392 136.747 222.392 136.747L214.472 138.224C214.472 138.224 181.305 72.8663 180.067 56.6191C178.83 40.495 183.161 27.5712 183.161 27.5712Z" fill="#1556E8"/>
<path d="M222.516 136.747C222.516 136.747 224.62 142.04 223.877 145.117C223.135 148.194 221.402 141.916 219.793 141.424C218.308 140.932 220.288 143.147 219.298 144.009C218.308 144.994 215.338 138.101 215.338 138.101L222.516 136.747Z" fill="#F79091"/>
<path d="M181.058 36.9255C183.904 46.1569 201.725 103.145 210.388 110.53C213.606 113.238 216.576 114.1 219.051 114.1C221.279 127.146 222.516 136.747 222.516 136.747L214.596 138.224C214.596 138.224 181.429 72.8662 180.191 56.6191C179.449 48.9878 180.191 42.0951 181.058 36.9255Z" fill="#0D52CE"/>
</svg>
