<svg width="30" height="36" viewBox="0 0 30 36" fill="none" xmlns="http://www.w3.org/2000/svg">
<path d="M0 1.62381V33.1445C0 33.3851 0.118485 33.5656 0.296213 33.6257C0.473941 33.6859 0.710911 33.6859 0.829396 33.5054L16.351 17.7451C16.4694 17.6248 16.5287 17.5045 16.5287 17.3842C16.5287 17.2639 16.4694 17.1435 16.351 17.0232L0.888639 1.26289C0.770154 1.14258 0.651668 1.14258 0.533183 1.14258C0.473941 1.14258 0.414698 1.14258 0.355456 1.20273C0.118485 1.26289 0 1.44335 0 1.62381Z" fill="#13E7A2"/>
<path d="M7.70149 0H4.91709C4.68012 0 4.50239 0.120308 4.44315 0.30077C4.3839 0.541386 4.3839 0.721848 4.56163 0.90231L12.6186 9.08325C12.7963 9.26372 13.1518 9.26372 13.3295 9.08325L14.9883 7.39894C15.1661 7.21848 15.1661 6.85756 14.9883 6.67709L9.00482 0.541386C8.64937 0.180462 8.23467 0 7.70149 0Z" fill="#1556E8"/>
<path d="M20.2619 1.80462C20.2619 1.62416 20.1434 1.50385 20.0249 1.4437C18.6031 0.481232 16.9443 0 15.2263 0H13.7452C13.5082 0 13.3305 0.120308 13.2713 0.30077C13.212 0.481232 13.212 0.721848 13.3898 0.842156L17.0628 4.5717C17.2405 4.81232 17.596 4.81232 17.7737 4.5717L20.1434 2.16554C20.2027 2.10539 20.2619 1.92493 20.2619 1.80462Z" fill="#1556E8"/>
<path d="M15.6404 34.8892C15.6997 35.0697 15.8774 35.19 16.1144 35.19H17.7731C23.9344 35.19 29.1477 30.6785 29.9179 24.6631C30.0364 23.46 30.0364 22.3171 29.8586 21.114C29.7994 20.9335 29.6809 20.7531 29.5032 20.7531C29.4439 20.7531 29.3847 20.7531 29.3254 20.7531C29.207 20.7531 29.0885 20.8132 28.97 20.9335L15.7589 34.3478C15.5812 34.4682 15.5812 34.7088 15.6404 34.8892Z" fill="#1556E8"/>
<path d="M4.14708 34.3484C3.96935 34.5289 3.96935 34.7093 4.0286 34.8898C4.08784 35.0702 4.26557 35.1905 4.50254 35.1905H10.0713C10.5453 35.1905 11.0192 35.0101 11.3747 34.6492L28.1996 17.5654C28.3773 17.385 28.3773 17.1443 28.2588 16.9639C27.4887 15.6405 26.4223 14.4976 25.2374 13.5351C25.1782 13.4749 25.0597 13.4148 24.9412 13.4148C24.8227 13.4148 24.645 13.4749 24.5858 13.5953L4.14708 34.3484Z" fill="#1556E8"/>
<path d="M23.6968 10.3459C24.0522 9.98494 24.23 9.50371 24.23 9.02247C24.23 7.99985 24.0522 6.07493 22.9266 4.33046C22.8674 4.21015 22.6897 4.08984 22.5712 4.08984H22.5119C22.3934 4.08984 22.275 4.15 22.1565 4.27031L15.4028 11.1279C15.2843 11.2482 15.2251 11.3685 15.2251 11.4888C15.2251 11.6091 15.2843 11.7294 15.4028 11.8497L18.4834 14.9777C18.6612 15.1582 19.0166 15.1582 19.1944 14.9777L23.6968 10.3459Z" fill="#1556E8"/>
</svg>
