<svg width="120" height="61" viewBox="0 0 120 61" fill="none" xmlns="http://www.w3.org/2000/svg">
<path d="M29.913 10.8056H28.3295V21.2626C28.3295 22.6569 27.2738 23.7026 25.8661 23.7026C24.4585 23.7026 23.4028 22.6569 23.4028 21.2626V10.8056H21.8193C20.4117 10.8056 19.356 9.75989 19.356 8.36562C19.356 6.97135 20.4117 5.92565 21.8193 5.92565H23.4028V2.43997C23.5788 1.0457 24.6345 0 26.0421 0C27.4497 0 28.5054 1.0457 28.5054 2.43997V6.09993H29.913C31.3206 6.09993 32.3763 7.14563 32.3763 8.5399C32.3763 9.75989 31.3206 10.8056 29.913 10.8056Z" fill="#1556E8"/>
<path d="M51.0271 8.36557V21.2626C51.0271 22.6568 49.9714 23.7025 48.5638 23.7025C47.1562 23.7025 46.1005 22.6568 46.1005 21.2626V20.7397C45.2207 22.8311 43.2853 23.5283 41.1738 23.5283C35.1915 23.5283 31.1446 17.7769 33.256 11.677C34.4877 8.36557 37.6548 5.9256 41.1738 5.9256C43.6372 5.9256 45.3967 6.9713 46.1005 8.53985V8.36557C46.1005 6.9713 47.1562 5.9256 48.5638 5.9256C49.9714 6.09988 51.0271 7.14558 51.0271 8.36557ZM46.1005 14.8141C46.1005 13.5941 45.5726 12.5484 44.8688 11.677C43.9891 10.9798 42.7574 10.457 41.7017 10.457C40.47 10.457 39.4143 10.9798 38.5346 11.677C37.6548 12.5484 37.3029 13.5941 37.3029 14.8141C37.3029 16.0341 37.8308 17.0798 38.5346 17.9512C39.4143 18.8226 40.47 19.1712 41.7017 19.1712C42.9334 19.1712 43.9891 18.6483 44.6929 17.9512C45.5726 17.0798 46.1005 16.0341 46.1005 14.8141Z" fill="#1556E8"/>
<path d="M64.9273 8.53984C64.9273 9.58554 64.2235 10.6312 63.1678 10.9798C60.5285 11.6769 58.9449 14.1169 58.9449 16.034V21.4368C58.9449 22.8311 57.8892 23.8768 56.4816 23.8768C55.074 23.8768 54.0183 22.8311 54.0183 21.4368V15.8598V8.53984C54.0183 7.14557 55.074 6.09986 56.4816 6.09986C57.8892 6.09986 58.9449 7.14557 58.9449 8.53984V8.71412C59.4728 7.31985 60.3525 6.44843 61.7602 6.09986C63.3437 5.7513 64.9273 6.97128 64.9273 8.53984Z" fill="#1556E8"/>
<path d="M76.716 10.8056H75.1324V21.2626C75.1324 22.6569 74.0767 23.7026 72.6691 23.7026C71.2615 23.7026 70.2058 22.6569 70.2058 21.2626V10.8056H68.6223C67.2146 10.8056 66.1589 9.75989 66.1589 8.36562C66.1589 6.97135 67.2146 5.92565 68.6223 5.92565H70.3818V2.43997C70.3818 1.0457 71.4375 0 72.8451 0C74.2527 0 75.3084 1.0457 75.3084 2.43997V6.09993H76.892C78.2996 6.09993 79.3553 7.14563 79.3553 8.5399C79.1793 9.75989 78.1236 10.8056 76.716 10.8056Z" fill="#1556E8"/>
<path d="M18.3003 45.8367C18.3003 51.7623 11.7901 52.1109 11.7901 52.1109H2.81659C1.40898 52.1109 0.353271 51.0652 0.353271 49.6709V32.2425C0.353271 30.8483 1.40898 29.8026 2.81659 29.8026H10.0306C10.0306 29.8026 15.1332 29.8026 16.3648 34.1596C17.2446 37.2968 15.4851 39.5624 15.4851 39.5624C15.4851 39.5624 18.3003 41.131 18.3003 45.8367ZM5.10395 39.2139H9.85463C11.0863 39.2139 12.3179 38.1682 12.4939 36.9482C12.6698 35.3796 11.4382 34.3339 10.0306 34.3339H5.10395V39.2139ZM11.4382 43.2224H5.10395V48.1023H11.6141C13.0218 48.1023 14.2534 46.8824 14.0775 45.3138C13.9015 44.0938 12.6698 43.2224 11.4382 43.2224Z" fill="#1556E8"/>
<path d="M36.9512 43.3967C36.9512 48.2766 33.0803 52.1109 28.1537 52.2852C23.2271 52.2852 19.1802 48.4509 19.1802 43.571C19.1802 38.691 23.0511 34.8568 27.9777 34.6825C33.0803 34.6825 36.9512 38.691 36.9512 43.3967ZM32.5525 43.3967C32.5525 42.1767 32.0246 41.131 31.3208 40.2596C30.441 39.5624 29.3853 39.0396 28.1537 39.0396C26.922 39.0396 25.8663 39.5624 25.1625 40.2596C24.2828 41.131 23.9309 42.1767 23.9309 43.3967C23.9309 44.6167 24.4587 45.6624 25.1625 46.5338C26.0423 47.4052 27.098 47.7538 28.3296 47.7538C29.5613 47.7538 30.617 47.2309 31.3208 46.5338C32.0246 45.6624 32.5525 44.6167 32.5525 43.3967Z" fill="#1556E8"/>
<path d="M55.9537 43.3967C55.9537 48.2766 52.0828 52.1109 47.1561 52.2852C42.2295 52.2852 38.1826 48.4509 38.1826 43.571C38.1826 38.691 42.0535 34.8568 46.9802 34.6825C51.9068 34.6825 55.9537 38.691 55.9537 43.3967ZM51.5549 43.3967C51.5549 42.1767 51.027 41.131 50.3232 40.2596C49.4435 39.5624 48.3878 39.0396 47.1561 39.0396C45.9245 39.0396 44.8688 39.5624 44.165 40.2596C43.2852 41.131 42.9333 42.1767 42.9333 43.3967C42.9333 44.6167 43.4611 45.6624 44.165 46.5338C45.0447 47.4052 46.1004 47.7538 47.3321 47.7538C48.5637 47.7538 49.6194 47.2309 50.3232 46.5338C51.027 45.6624 51.5549 44.6167 51.5549 43.3967Z" fill="#1556E8"/>
<path d="M63.8717 45.4881L62.1122 47.0567V49.8452C62.1122 51.2395 61.0565 52.2852 59.6489 52.2852C58.2413 52.2852 57.1855 51.2395 57.1855 49.8452V31.0226C57.1855 29.6283 58.2413 28.5826 59.6489 28.5826C61.0565 28.5826 62.1122 29.6283 62.1122 31.0226V40.2596L67.0388 35.3796C67.5667 34.8568 68.0945 34.6825 68.7983 34.6825C70.9097 34.6825 71.9654 37.2968 70.5578 38.691L67.2148 42.0024L72.4933 48.2766C73.9009 49.8452 72.6692 52.2852 70.7338 52.2852C70.03 52.2852 69.3262 51.9366 68.7983 51.4137L63.8717 45.4881Z" fill="#1556E8"/>
<path d="M100.294 43.5709C100.294 43.7452 100.294 43.9195 100.294 43.9195V50.0194C100.294 51.2394 99.238 52.2851 98.0063 52.2851C96.7747 52.2851 95.719 51.2394 95.719 50.0194V43.5709C95.719 42.351 95.719 41.4795 94.6632 40.4338C93.9594 39.5624 92.7278 39.2138 91.4961 39.2138C89.7366 39.2138 88.505 40.2595 87.9771 41.8281C87.8011 42.1767 87.8012 42.8738 87.8012 43.2224V43.5709V49.8452C87.8012 51.2394 86.7454 52.2851 85.3378 52.2851C83.9302 52.2851 82.8745 51.2394 82.8745 49.8452V36.9482C82.8745 35.5539 83.9302 34.5082 85.3378 34.5082C86.7454 34.5082 87.8012 35.5539 87.8012 36.9482V37.471C88.8569 35.5539 90.6164 34.8567 92.1999 34.6825C97.1266 34.3339 100.294 37.471 100.294 43.5709Z" fill="#1556E8"/>
<path d="M120 36.9482V51.9366C120 56.6422 116.129 60.8251 111.378 60.9993C108.035 60.9993 105.044 59.2565 103.461 56.6422C102.581 55.248 103.813 53.3309 105.396 53.3309C106.276 53.3309 106.98 53.6794 107.332 54.3766C107.508 54.7251 107.683 55.0737 108.035 55.248C108.915 56.1194 109.971 56.468 111.203 56.468C112.434 56.468 113.49 55.9451 114.194 55.248C115.073 54.3766 115.425 53.3309 115.425 52.2852V50.5423C114.37 51.588 112.786 52.2852 111.203 52.2852C106.276 52.2852 102.229 48.4509 102.229 43.571C102.229 38.691 105.22 34.6825 110.147 34.6825C112.786 34.6825 114.37 35.9025 115.425 37.1225V36.9482C115.425 35.7282 116.481 34.6825 117.713 34.6825C118.944 34.6825 120 35.7282 120 36.9482ZM115.425 43.0481C115.249 42.0024 114.897 41.131 114.194 40.4339C113.314 39.7367 112.258 39.2139 111.027 39.2139C109.795 39.2139 108.739 39.7367 108.035 40.4339C107.156 41.3053 106.804 42.351 106.804 43.571C106.804 44.791 107.332 45.8367 108.035 46.7081C108.915 47.5795 109.971 47.9281 111.203 47.9281C112.434 47.9281 113.49 47.4052 114.194 46.7081C114.897 46.0109 115.249 45.1395 115.425 44.2681V43.0481Z" fill="#1556E8"/>
<path d="M77.9477 34.8568C76.5401 34.8568 75.4844 35.9025 75.4844 37.2967V50.0194C75.4844 51.4137 76.5401 52.4594 77.9477 52.4594C79.3553 52.4594 80.411 51.4137 80.411 50.0194V37.2967C80.411 35.9025 79.3553 34.8568 77.9477 34.8568Z" fill="#1556E8"/>
<path d="M77.9477 32.5911C79.1793 32.5911 80.411 31.5454 80.411 30.1511C80.411 28.9311 79.3553 27.7111 77.9477 27.7111C76.716 27.7111 75.4844 28.7568 75.4844 30.1511C75.4844 31.5454 76.716 32.5911 77.9477 32.5911Z" fill="#1556E8"/>
<path d="M16.8927 12.7227C16.1889 12.0256 15.1332 11.3284 14.0775 10.8056C13.0217 10.457 11.7901 10.2827 10.7344 9.93415C9.67868 9.75987 8.62297 9.75987 7.56726 9.4113C6.33561 9.23701 4.928 8.53988 4.928 7.14561C4.928 5.57706 6.51156 5.0542 8.44702 5.0542C9.85463 5.0542 10.9103 5.40277 12.3179 6.27419C12.6698 6.44847 12.8458 6.62276 13.1977 6.79704C13.5496 6.97133 14.0775 6.97133 14.4294 6.79704C15.661 6.44847 16.3648 5.0542 15.837 3.83422C15.837 3.65993 15.661 3.31137 15.4851 3.13708C15.3091 2.78852 14.9572 2.61423 14.6053 2.26566C13.0217 1.04568 10.7344 0.522827 8.44702 0.522827C4.928 0.522827 2.99254 1.39425 1.40898 3.13708C0.881124 4.0085 0.00136833 5.40277 0.00136833 7.49418C0.00136833 9.06273 0.529221 10.2827 1.58493 11.5027C2.28873 12.1998 3.34444 12.897 4.40015 13.4198C5.45585 13.7684 6.51156 14.117 7.74322 14.2912C8.79892 14.4655 9.85463 14.4655 10.9103 14.8141C11.966 15.1627 13.5496 15.6855 13.7256 16.9055V17.0798C13.7256 18.6483 12.142 19.1712 10.2065 19.1712C8.62297 19.1712 6.15966 18.8226 4.04824 17.4284C3.52039 17.0798 3.34444 16.9055 2.99254 16.7312C2.46468 16.5569 2.11278 16.5569 1.58493 16.7312C0.35327 17.0798 -0.350534 18.4741 0.177319 19.694C0.35327 20.0426 0.529221 20.2169 0.705173 20.5655C0.881124 20.914 1.23303 21.0883 1.58493 21.2626C3.52039 23.0054 7.03941 23.7026 9.15082 23.7026C12.6698 23.7026 15.1332 22.8311 16.7167 21.0883C17.4205 20.2169 18.3003 18.8226 18.3003 16.7312C18.3003 15.1627 17.7724 13.9427 16.8927 12.7227Z" fill="#1556E8"/>
</svg>
