<?xml version="1.0" encoding="utf-8"?>
<!-- Generator: Adobe Illustrator 16.0.0, SVG Export Plug-In . SVG Version: 6.00 Build 0)  -->
<!DOCTYPE svg PUBLIC "-//W3C//DTD SVG 1.1//EN" "http://www.w3.org/Graphics/SVG/1.1/DTD/svg11.dtd">
<svg version="1.1" id="Слой_1" xmlns="http://www.w3.org/2000/svg" xmlns:xlink="http://www.w3.org/1999/xlink" x="0px" y="0px"
	 width="24px" height="24px" viewBox="0 0 24 24" enable-background="new 0 0 24 24" xml:space="preserve">
<circle fill="#E8E8EE" cx="12" cy="12" r="11.5"/>
<path fill="#F6F6F9" d="M12,5.102L12,5.102c0.636,0,1.149,0.515,1.149,1.148v11.5c0,0.637-0.514,1.15-1.149,1.15l0,0
	c-0.635,0-1.149-0.516-1.149-1.15V6.25C10.851,5.615,11.366,5.102,12,5.102z"/>
<path fill="#F6F6F9" d="M5.101,12L5.101,12c0-0.635,0.516-1.15,1.149-1.15h11.5c0.636,0,1.149,0.516,1.149,1.15l0,0
	c0,0.637-0.516,1.15-1.149,1.15H6.25C5.616,13.15,5.101,12.637,5.101,12z"/>
</svg>
