<?xml version="1.0" encoding="utf-8"?>
<!-- Generator: Adobe Illustrator 24.0.0, SVG Export Plug-In . SVG Version: 6.00 Build 0)  -->
<svg version="1.1" xmlns="http://www.w3.org/2000/svg" xmlns:xlink="http://www.w3.org/1999/xlink" x="0px" y="0px"
	 viewBox="0 0 24 24" style="enable-background:new 0 0 24 24;" xml:space="preserve">
<path d="M12,4.8c0.2,0,0.3,0.1,0.5,0.2c0.3,0.3,0.3,0.7,0,0.9l-5.4,5.4h11.4c0.4,0,0.6,0.3,0.6,0.7s-0.3,0.6-0.6,0.6H7.1l5.4,5.4
	c0.3,0.3,0.3,0.7,0,0.9s-0.7,0.3-0.9,0L5,12.5c0,0,0,0,0,0l0,0c0,0,0,0,0,0c0,0,0,0,0,0c0,0,0,0,0,0c-0.1-0.1-0.1-0.1-0.1-0.2
	c0-0.1,0-0.2,0-0.2l0,0c0,0,0,0,0,0v0c0,0,0,0,0,0c0,0,0,0,0,0c0,0,0,0,0,0s0,0,0,0c0,0,0,0,0,0c0,0,0,0,0,0v0c0,0,0,0,0,0l0,0
	c0-0.1,0-0.2,0-0.2c0-0.1,0.1-0.1,0.1-0.2c0,0,0,0,0,0c0,0,0,0,0,0c0,0,0,0,0,0l0,0c0,0,0,0,0,0L11.5,5C11.7,4.9,11.8,4.8,12,4.8z"
	/>
</svg>
