<?xml version="1.0" encoding="utf-8"?>
<!-- Generator: Adobe Illustrator 16.0.0, SVG Export Plug-In . SVG Version: 6.00 Build 0)  -->
<!DOCTYPE svg PUBLIC "-//W3C//DTD SVG 1.1//EN" "http://www.w3.org/Graphics/SVG/1.1/DTD/svg11.dtd">
<svg version="1.1" id="Слой_1" xmlns="http://www.w3.org/2000/svg" xmlns:xlink="http://www.w3.org/1999/xlink" x="0px" y="0px"
	 width="24px" height="24px" viewBox="0 0 24 24" enable-background="new 0 0 24 24" xml:space="preserve">
<path d="M23.171,12.485h0.062l-2.301-4.509c-0.398-0.715-1.025-1.264-1.773-1.551C18.9,5.8,18.473,5.268,17.924,4.896
	c-0.548-0.372-1.19-0.568-1.845-0.563c-0.655,0.005-1.296,0.211-1.839,0.592c-0.544,0.381-0.963,0.92-1.211,1.548
	c-0.315-0.165-0.664-0.251-1.02-0.251c-0.354,0-0.705,0.085-1.021,0.251c-0.248-0.633-0.674-1.174-1.22-1.556
	c-0.548-0.38-1.192-0.584-1.852-0.584c-0.659,0-1.304,0.204-1.851,0.584C5.519,5.299,5.094,5.84,4.847,6.473
	C4.14,6.771,3.552,7.307,3.173,7.993L1.38,11.377c-0.438,0.671-0.722,1.438-0.83,2.238c-0.108,0.801-0.039,1.619,0.205,2.388
	c0.243,0.771,0.653,1.472,1.198,2.053c0.545,0.578,1.211,1.021,1.948,1.296c0.736,0.273,1.523,0.369,2.3,0.279
	c0.778-0.09,1.525-0.361,2.186-0.797c0.66-0.435,1.215-1.019,1.625-1.707c0.408-0.688,0.658-1.468,0.732-2.272
	c0.016-0.167,0.024-0.335,0.024-0.503c0-0.357-0.034-0.713-0.101-1.063c-0.046-0.22-0.105-0.434-0.177-0.646
	c0.137-0.292,0.353-0.539,0.619-0.712c0.267-0.173,0.576-0.264,0.891-0.264s0.622,0.091,0.889,0.264
	c0.267,0.174,0.481,0.42,0.619,0.712c-0.072,0.212-0.13,0.428-0.175,0.647c-0.069,0.351-0.104,0.704-0.104,1.063
	c0,0.163,0.011,0.324,0.024,0.486c0.065,0.754,0.288,1.485,0.649,2.144c0.362,0.657,0.856,1.229,1.45,1.673
	c0.593,0.444,1.271,0.753,1.988,0.904c0.719,0.15,1.458,0.142,2.172-0.028c0.715-0.17,1.383-0.494,1.967-0.954
	c0.582-0.459,1.063-1.043,1.408-1.712c0.348-0.666,0.551-1.402,0.6-2.158C23.538,13.952,23.43,13.193,23.171,12.485z M5.631,17.912
	c-0.638-0.002-1.263-0.188-1.805-0.536c-0.542-0.348-0.979-0.845-1.265-1.436c-0.285-0.592-0.405-1.253-0.347-1.909
	c0.057-0.658,0.29-1.286,0.671-1.815c0.383-0.528,0.899-0.938,1.492-1.18c0.594-0.243,1.241-0.311,1.869-0.194
	c0.628,0.116,1.213,0.41,1.689,0.849s0.825,1.007,1.008,1.64c0.097,0.331,0.146,0.674,0.145,1.021
	c-0.002,0.945-0.366,1.852-1.015,2.521C7.424,17.541,6.546,17.915,5.631,17.912z M18.367,17.912
	c-0.915,0.001-1.793-0.373-2.441-1.041c-0.646-0.669-1.012-1.574-1.016-2.521c0-0.348,0.049-0.691,0.145-1.023
	c0.216-0.735,0.656-1.379,1.252-1.837c0.596-0.457,1.318-0.706,2.062-0.708c0.471,0,0.935,0.099,1.366,0.291
	c0.43,0.192,0.816,0.474,1.139,0.829h0.016l0.18,0.226c0.404,0.524,0.658,1.158,0.732,1.825c0.071,0.667-0.039,1.342-0.32,1.947
	c-0.282,0.604-0.725,1.115-1.275,1.472C19.652,17.729,19.018,17.915,18.367,17.912z"/>
</svg>
