<?xml version="1.0" encoding="utf-8"?>
<!-- Generator: Adobe Illustrator 16.0.0, SVG Export Plug-In . SVG Version: 6.00 Build 0)  -->
<!DOCTYPE svg PUBLIC "-//W3C//DTD SVG 1.1//EN" "http://www.w3.org/Graphics/SVG/1.1/DTD/svg11.dtd">
<svg version="1.1" id="Слой_1" xmlns="http://www.w3.org/2000/svg" xmlns:xlink="http://www.w3.org/1999/xlink" x="0px" y="0px"
	 width="24px" height="24px" viewBox="0 0 24 24" enable-background="new 0 0 24 24" xml:space="preserve">
<path fill="none" stroke="currentColor" stroke-linecap="round" stroke-linejoin="round" stroke-miterlimit="10" d="M3.261,21.947h17.477
	c1.529,0,2.763-1.29,2.763-2.858V8.777c0-1.569-1.206-2.83-2.707-2.858l-2.521-0.223c-0.106,0-0.188-0.084-0.215-0.168l-0.323-1.233
	c-0.078-1.261-1.098-2.242-2.333-2.242H8.595c-1.232,0-2.252,0.98-2.332,2.242L5.915,5.499C5.888,5.583,5.808,5.667,5.701,5.667
	l-2.52,0.224C1.706,5.947,0.5,7.208,0.5,8.777v10.312C0.5,20.66,1.733,21.947,3.261,21.947z"/>
<path fill="none" stroke="currentColor" stroke-linecap="round" stroke-linejoin="round" stroke-miterlimit="10" d="M11.999,18.387
	c2.827,0,5.12-2.395,5.12-5.35c0-2.956-2.293-5.352-5.12-5.352c-2.828,0-5.121,2.397-5.121,5.353
	C6.878,15.993,9.171,18.387,11.999,18.387z"/>
</svg>
