<?xml version="1.0" encoding="utf-8"?>
<!-- Generator: Adobe Illustrator 16.0.0, SVG Export Plug-In . SVG Version: 6.00 Build 0)  -->
<!DOCTYPE svg PUBLIC "-//W3C//DTD SVG 1.1//EN" "http://www.w3.org/Graphics/SVG/1.1/DTD/svg11.dtd">
<svg version="1.1" id="Слой_1" xmlns="http://www.w3.org/2000/svg" xmlns:xlink="http://www.w3.org/1999/xlink" x="0px" y="0px"
	 width="24px" height="24px" viewBox="0 0 24 24" enable-background="new 0 0 24 24" xml:space="preserve">
<path fill="#FBBB00" d="M5.32,14.503L4.486,17.62l-3.052,0.065C0.516,15.993,0,14.059,0,12c0-1.992,0.483-3.867,1.34-5.517
	L4.059,6.98l1.191,2.7C5.001,10.406,4.866,11.184,4.866,12C4.866,12.882,5.025,13.727,5.32,14.503z"/>
<path fill="#518EF8" d="M23.789,9.759C23.925,10.486,24,11.236,24,12c0,0.857-0.089,1.695-0.264,2.508
	c-0.586,2.751-2.108,5.151-4.225,6.854l-3.422-0.174l-0.48-3.023c1.4-0.825,2.496-2.109,3.074-3.65h-6.421V9.759h6.511H23.789z"/>
<path fill="#28B446" d="M19.516,21.355C17.456,23.011,14.846,24,12,24c-4.57,0-8.545-2.555-10.57-6.314l3.891-3.183
	c1.012,2.705,3.624,4.631,6.68,4.631c1.313,0,2.546-0.354,3.604-0.975L19.516,21.355z"/>
<path fill="#F14336" d="M19.659,2.761l-3.886,3.183C14.682,5.259,13.389,4.866,12,4.866c-3.127,0-5.785,2.016-6.75,4.814L1.34,6.478
	C3.337,2.629,7.364,0,12,0C14.911,0,17.583,1.036,19.659,2.761z"/>
</svg>
