<svg width="24" height="24" viewBox="0 0 24 24" xmlns="http://www.w3.org/2000/svg">
<path d="M12 0C5.36327 0 0 5.36327 0 12C0 18.6367 5.36327 24 12 24C18.6367 24 24 18.6367 24 12C24 5.36327 18.6367 0 12 0ZM12 21.7469C6.61225 21.7469 2.25306 17.3878 2.25306 12C2.25306 6.61225 6.61225 2.25306 12 2.25306C17.3878 2.25306 21.7469 6.61225 21.7469 12C21.7469 17.3878 17.3878 21.7469 12 21.7469ZM10.5061 6H13.5184V9.01225H10.5061V6ZM15.0122 18H9.01225V16.5061H10.5061V12H9.01225V10.5061H13.5184V16.5061H15.0122V18Z" />
</svg>
