<?xml version="1.0" encoding="utf-8"?>
<!-- Generator: Adobe Illustrator 16.0.0, SVG Export Plug-In . SVG Version: 6.00 Build 0)  -->
<!DOCTYPE svg PUBLIC "-//W3C//DTD SVG 1.1//EN" "http://www.w3.org/Graphics/SVG/1.1/DTD/svg11.dtd">
<svg version="1.1" id="Слой_1" xmlns="http://www.w3.org/2000/svg" xmlns:xlink="http://www.w3.org/1999/xlink" x="0px" y="0px"
	 width="24px" height="24px" viewBox="0 0 24 24" enable-background="new 0 0 24 24" xml:space="preserve">
<path fill="#FFFFFF" d="M8.001,12c0-2.203,1.79-3.99,4-3.99c2.209,0,4.001,1.787,4.001,3.99c0,2.204-1.792,3.991-4.001,3.991
	C9.791,15.99,8.001,14.203,8.001,12z M5.838,12c0,3.393,2.759,6.145,6.163,6.145c3.402,0,6.162-2.752,6.162-6.145
	c0-3.396-2.76-6.146-6.162-6.146C8.597,5.854,5.838,8.604,5.838,12z M16.967,5.611c0,0.793,0.645,1.437,1.439,1.437
	s1.439-0.644,1.439-1.437s-0.644-1.436-1.439-1.436S16.967,4.818,16.967,5.611z M7.152,21.742c-1.17-0.053-1.807-0.248-2.229-0.41
	c-0.561-0.219-0.96-0.479-1.381-0.896c-0.419-0.418-0.681-0.816-0.896-1.377c-0.165-0.42-0.359-1.057-0.413-2.221
	C2.174,15.576,2.163,15.195,2.163,12c0-3.196,0.012-3.574,0.069-4.837c0.054-1.167,0.25-1.8,0.413-2.224
	c0.219-0.559,0.478-0.957,0.897-1.377c0.42-0.419,0.819-0.679,1.381-0.895C5.346,2.503,5.982,2.31,7.153,2.255
	c1.264-0.057,1.644-0.068,4.848-0.068c3.203,0,3.583,0.013,4.851,0.069c1.171,0.054,1.805,0.249,2.229,0.413
	c0.561,0.216,0.96,0.476,1.381,0.895c0.42,0.419,0.678,0.817,0.896,1.376c0.166,0.422,0.359,1.057,0.414,2.224
	C21.829,8.426,21.84,8.804,21.84,12c0,3.195-0.012,3.574-0.068,4.837c-0.055,1.164-0.251,1.801-0.414,2.221
	c-0.219,0.561-0.479,0.959-0.896,1.377c-0.421,0.418-0.82,0.678-1.381,0.896c-0.422,0.162-1.058,0.357-2.229,0.41
	c-1.266,0.059-1.646,0.068-4.851,0.068S8.417,21.801,7.152,21.742z M7.053,0.103C5.775,0.162,4.903,0.364,4.14,0.66
	C3.351,0.965,2.682,1.375,2.014,2.041C1.347,2.706,0.936,3.373,0.63,4.161c-0.297,0.76-0.5,1.631-0.558,2.904
	C0.012,8.341,0,8.75,0,12c0,3.251,0.013,3.658,0.072,4.935C0.13,18.209,0.333,19.08,0.63,19.84c0.306,0.787,0.715,1.455,1.384,2.121
	c0.667,0.664,1.336,1.072,2.126,1.379c0.765,0.297,1.636,0.498,2.913,0.557c1.28,0.059,1.688,0.072,4.947,0.072
	s3.668-0.012,4.947-0.072c1.277-0.059,2.148-0.26,2.912-0.557c0.789-0.307,1.459-0.715,2.126-1.379
	c0.668-0.666,1.079-1.334,1.385-2.121c0.298-0.762,0.499-1.631,0.558-2.904C23.987,15.66,24,15.252,24,12
	c0-3.25-0.014-3.658-0.072-4.936c-0.059-1.273-0.26-2.145-0.558-2.904c-0.306-0.788-0.717-1.454-1.385-2.12
	c-0.666-0.665-1.337-1.075-2.123-1.381c-0.765-0.296-1.636-0.499-2.914-0.557c-1.277-0.058-1.688-0.072-4.946-0.072
	C8.741,0.032,8.334,0.045,7.053,0.103z"/>
</svg>
