<?xml version="1.0" encoding="utf-8"?>
<!-- Generator: Adobe Illustrator 16.0.0, SVG Export Plug-In . SVG Version: 6.00 Build 0)  -->
<!DOCTYPE svg PUBLIC "-//W3C//DTD SVG 1.1//EN" "http://www.w3.org/Graphics/SVG/1.1/DTD/svg11.dtd">
<svg version="1.1" id="Слой_1" xmlns="http://www.w3.org/2000/svg" xmlns:xlink="http://www.w3.org/1999/xlink" x="0px" y="0px"
	 width="24px" height="24px" viewBox="0 0 24 24" enable-background="new 0 0 24 24" xml:space="preserve">
<path d="M19.97,20.063c-0.148,0.104-0.263,0.184-0.181,0.437c0.589,1.843-0.757,3.226-1.957,3.44
	c-0.188,0.035-0.382,0.052-0.571,0.052c-3.169,0.005-6.337,0.021-9.504-0.005c-1.983-0.014-3.431-1.063-4.311-3.104
	C3.151,20.198,3.03,19.46,3.03,18.698c0-1.828,0-3.656,0-5.484c-0.006-1.132,0.31-2.236,0.9-3.146
	c1.868-2.932,3.74-5.861,5.611-8.791c0.191-0.298,0.398-0.597,0.645-0.83c0.727-0.69,1.777-0.566,2.426,0.265
	c0.683,0.877,0.856,1.892,0.477,2.972c-0.563,1.605-1.178,3.188-1.772,4.777c-0.031,0.086-0.062,0.172-0.113,0.315
	c0.148,0,0.246,0,0.346,0c1.957,0.016,3.916,0.032,5.875,0.047c0.639,0.005,1.242,0.141,1.759,0.604
	c0.506,0.453,0.769,1.044,0.747,1.781c-0.01,0.322-0.07,0.641-0.09,0.964c-0.007,0.081,0.038,0.214,0.093,0.245
	c1.194,0.677,1.35,2.646,0.437,3.729c-0.02,0.021-0.037,0.047-0.05,0.072c0.204,0.427,0.447,0.79,0.56,1.202
	C21.157,18.454,20.777,19.487,19.97,20.063z"/>
</svg>
