<?xml version="1.0" encoding="utf-8"?>
<!-- Generator: Adobe Illustrator 16.0.0, SVG Export Plug-In . SVG Version: 6.00 Build 0)  -->
<!DOCTYPE svg PUBLIC "-//W3C//DTD SVG 1.1//EN" "http://www.w3.org/Graphics/SVG/1.1/DTD/svg11.dtd">
<svg version="1.1" id="Слой_1" xmlns="http://www.w3.org/2000/svg" xmlns:xlink="http://www.w3.org/1999/xlink" x="0px" y="0px"
	 width="24px" height="24px" viewBox="0 0 24 24" enable-background="new 0 0 24 24" xml:space="preserve">
<path d="M24,18.68v1.987H0v-3.125c0.032-0.312,0.144-0.607,0.326-0.862c0.182-0.255,0.427-0.46,0.712-0.594
	c0.488-0.237,0.999-0.429,1.524-0.57c0.029-0.013,1.646-0.437,2.417-0.839l0.057-0.033c0.082-0.053,0.148-0.125,0.193-0.21
	c0.046-0.085,0.068-0.18,0.066-0.273v-0.949c-2.571,0.022-3.327-1.066-3.327-1.066s1.473-0.022,1.379-3.855
	C3.254,4.457,5.043,3.824,5.71,3.574c1.941-0.728,2.915,0.43,2.915,0.43c2.248-0.207,2.869,2.222,2.594,4.99
	c-0.274,2.767,1.262,3.197,1.262,3.197c-1.055,1.067-3.284,1-3.284,1v0.242v0.728c-0.002,0.097,0.021,0.191,0.067,0.276
	c0.045,0.084,0.113,0.157,0.194,0.209l0.069,0.042c0.768,0.402,2.387,0.824,2.417,0.839c0.301,0.08,0.597,0.179,0.886,0.294
	c0.788-0.469,1.4-0.773,1.604-0.871c0.021-0.012,0.041-0.026,0.053-0.048c0.015-0.021,0.021-0.045,0.021-0.068v-1.379
	c-0.2-0.337-0.338-0.709-0.403-1.097c-0.155-0.012-0.358-0.228-0.58-0.995c-0.303-1.05,0.021-1.213,0.291-1.182
	c-0.051-0.14-0.09-0.285-0.119-0.432c-0.106-0.456-0.106-0.93,0-1.385c0.136-0.537,0.42-1.027,0.818-1.417
	c0.223-0.236,0.479-0.444,0.754-0.618c0.228-0.158,0.477-0.283,0.737-0.371c0.213-0.07,0.435-0.109,0.66-0.119
	c0.582-0.063,1.169,0.059,1.676,0.349c0.337,0.172,0.618,0.431,0.817,0.749c0,0,1.354,0.095,0.898,2.817
	c-0.029,0.146-0.068,0.291-0.119,0.432c0.271-0.024,0.59,0.131,0.291,1.182c-0.223,0.769-0.426,0.981-0.582,0.994
	c-0.066,0.387-0.205,0.758-0.41,1.092v1.383c0,0.024,0.007,0.049,0.02,0.069c0.014,0.02,0.032,0.035,0.055,0.047
	c1.483,0.733,2.883,1.625,4.172,2.652c0.16,0.131,0.291,0.295,0.383,0.479C23.95,18.271,23.999,18.475,24,18.68z"/>
</svg>
