<?xml version="1.0" encoding="utf-8"?>
<!-- Generator: Adobe Illustrator 16.0.0, SVG Export Plug-In . SVG Version: 6.00 Build 0)  -->
<!DOCTYPE svg PUBLIC "-//W3C//DTD SVG 1.1//EN" "http://www.w3.org/Graphics/SVG/1.1/DTD/svg11.dtd">
<svg version="1.1" id="Capa_1" xmlns="http://www.w3.org/2000/svg" xmlns:xlink="http://www.w3.org/1999/xlink" x="0px" y="0px"
	 width="24px" height="24px" viewBox="0 0 24 24" enable-background="new 0 0 24 24" xml:space="preserve">
<g>
	<path d="M22.561,10.561l-9.332,0.028V1.44C13.229,0.643,12.586,0,11.789,0S10.35,0.643,10.35,1.44l0.028,9.121H1.439
		c-0.797,0-1.438,0.643-1.438,1.439c0,0.796,0.642,1.437,1.438,1.437h8.924v9.123c0,0.797,0.643,1.439,1.439,1.439
		s1.438-0.645,1.438-1.439v-9.121h9.319c0.797,0,1.438-0.643,1.438-1.439C24,11.203,23.352,10.561,22.561,10.561z"/>
</g>
</svg>
