<?xml version="1.0" encoding="utf-8"?>
<!-- Generator: Adobe Illustrator 16.0.0, SVG Export Plug-In . SVG Version: 6.00 Build 0)  -->
<!DOCTYPE svg PUBLIC "-//W3C//DTD SVG 1.1//EN" "http://www.w3.org/Graphics/SVG/1.1/DTD/svg11.dtd">
<svg version="1.1" id="Слой_1" xmlns="http://www.w3.org/2000/svg" xmlns:xlink="http://www.w3.org/1999/xlink" x="0px" y="0px"
	 width="24px" height="24px" viewBox="0 0 24 24" enable-background="new 0 0 24 24" xml:space="preserve">
<path d="M4,6.361h3.182c0.205-2.346,1.99-3.805,4.799-3.805c2.773,0,4.559,1.492,4.559,3.525c0,1.754-0.836,2.787-2.994,3.951
	c-2.549,1.344-3.74,2.817-3.723,4.981v1.508h3.256v-1.061c0-1.723,0.67-2.641,3.03-3.871C18.492,10.328,20,8.508,20,5.934
	C20,2.557,16.801,0,12.111,0C6.883,0,4.205,2.82,4,6.361z M11.461,24c1.209,0,2.121-0.82,2.121-1.867
	c0-1.066-0.912-1.871-2.121-1.871c-1.191,0-2.121,0.805-2.121,1.871C9.34,23.18,10.27,24,11.461,24z"/>
</svg>
