<?xml version="1.0" encoding="utf-8"?>
<!-- Generator: Adobe Illustrator 16.0.0, SVG Export Plug-In . SVG Version: 6.00 Build 0)  -->
<!DOCTYPE svg PUBLIC "-//W3C//DTD SVG 1.1//EN" "http://www.w3.org/Graphics/SVG/1.1/DTD/svg11.dtd">
<svg version="1.1" id="Слой_1" xmlns="http://www.w3.org/2000/svg" xmlns:xlink="http://www.w3.org/1999/xlink" x="0px" y="0px"
	 width="24px" height="24px" viewBox="0 0 24 24" enable-background="new 0 0 24 24" xml:space="preserve">
<path d="M24,16.994l-6.908-6.906c0.475-0.691,0.698-1.523,0.635-2.359c-0.063-0.837-0.407-1.625-0.979-2.238
	c-0.571-0.613-1.335-1.014-2.165-1.133c-0.83-0.121-1.675,0.045-2.398,0.469L7.867,4.731L0,12.598l7.084,7.083l7.866-7.866V11.59
	c0.424-0.109,0.825-0.293,1.185-0.544l2.75,2.75l-1.953,1.952l3.471,3.47l1.949-1.951l0.688,0.688L24,16.994z M1.918,12.598
	L8.426,6.09l5.053,0.128l0.096,4.062c-0.336-0.068-0.652-0.211-0.927-0.416c0.2-0.475,0.227-1.006,0.071-1.498
	c-0.156-0.493-0.481-0.914-0.918-1.188c-0.438-0.273-0.959-0.383-1.469-0.309C9.821,6.946,9.354,7.2,9.016,7.588
	c-0.34,0.389-0.53,0.885-0.537,1.4c-0.008,0.517,0.17,1.019,0.5,1.416c0.328,0.396,0.789,0.664,1.298,0.752
	c0.508,0.088,1.032-0.008,1.476-0.271c0.436,0.351,0.943,0.597,1.487,0.72l-6.155,6.156L1.918,12.598z M10.377,8.265
	c0.035,0.545,0.194,1.075,0.463,1.552c-0.197,0.037-0.401-0.002-0.572-0.105c-0.172-0.105-0.299-0.27-0.355-0.462
	C9.854,9.057,9.87,8.85,9.956,8.668C10.043,8.487,10.191,8.343,10.377,8.265z M14.821,5.803c0.454,0.152,0.851,0.441,1.135,0.828
	c0.284,0.386,0.442,0.85,0.452,1.329c0.012,0.479-0.127,0.95-0.395,1.348c-0.267,0.398-0.648,0.704-1.098,0.876L14.821,5.803z
	 M20.402,17.299l-1.553-1.551l0.992-0.992l1.551,1.551L20.402,17.299z"/>
</svg>
