<?xml version="1.0" encoding="utf-8"?>
<!-- Generator: Adobe Illustrator 16.0.0, SVG Export Plug-In . SVG Version: 6.00 Build 0)  -->
<!DOCTYPE svg PUBLIC "-//W3C//DTD SVG 1.1//EN" "http://www.w3.org/Graphics/SVG/1.1/DTD/svg11.dtd">
<svg version="1.1" id="Слой_1" xmlns="http://www.w3.org/2000/svg" xmlns:xlink="http://www.w3.org/1999/xlink" x="0px" y="0px"
	 width="24px" height="24px" viewBox="0 0 24 24" enable-background="new 0 0 24 24" xml:space="preserve">
<path fill="#FFFFFF" d="M21.174,4.985c1.018-0.641,1.797-1.656,2.164-2.865c-0.953,0.594-2.006,1.023-3.129,1.257
	c-0.895-1.008-2.176-1.636-3.592-1.636c-2.721,0-4.924,2.318-4.924,5.179c0,0.406,0.041,0.801,0.126,1.179
	C7.729,7.884,4.102,5.823,1.671,2.687C1.247,3.455,1.004,4.344,1.004,5.292c0,1.796,0.869,3.381,2.191,4.312
	C2.388,9.578,1.628,9.342,0.963,8.957v0.063c0,2.51,1.696,4.604,3.951,5.077c-0.414,0.123-0.848,0.184-1.298,0.184
	c-0.317,0-0.627-0.03-0.926-0.093c0.626,2.058,2.444,3.558,4.6,3.599c-1.686,1.39-3.809,2.217-6.115,2.217
	c-0.397,0-0.79-0.022-1.175-0.072c2.179,1.471,4.768,2.327,7.548,2.327c9.057,0,14.008-7.893,14.008-14.737
	c0-0.225-0.004-0.448-0.014-0.67C22.506,6.122,23.342,5.208,24,4.17C23.117,4.582,22.17,4.861,21.174,4.985z"/>
</svg>
