<?xml version="1.0" encoding="utf-8"?>
<!-- Generator: Adobe Illustrator 16.0.0, SVG Export Plug-In . SVG Version: 6.00 Build 0)  -->
<!DOCTYPE svg PUBLIC "-//W3C//DTD SVG 1.1//EN" "http://www.w3.org/Graphics/SVG/1.1/DTD/svg11.dtd">
<svg version="1.1" id="Слой_1" xmlns="http://www.w3.org/2000/svg" xmlns:xlink="http://www.w3.org/1999/xlink" x="0px" y="0px"
	 width="24px" height="24px" viewBox="0 0 24 24" enable-background="new 0 0 24 24" xml:space="preserve">
<path fill="#10102E" d="M12,0C5.4,0,0,5.4,0,12c0,6.6,5.4,12,12,12c6.6,0,12-5.4,12-12C24,5.4,18.6,0,12,0z M12,3.6
	c2.1,0,3.6,1.5,3.6,3.6c0,2.1-1.5,3.6-3.6,3.6c-2.1,0-3.6-1.5-3.6-3.6C8.4,5.1,9.9,3.6,12,3.6z M12,20.7c-3,0-5.7-1.5-7.2-3.9
	c0-2.399,4.8-3.75,7.2-3.75c2.4,0,7.2,1.351,7.2,3.75C17.7,19.05,15,20.7,12,20.7z"/>
</svg>
