<?xml version="1.0" encoding="utf-8"?>
<!-- Generator: Adobe Illustrator 16.0.0, SVG Export Plug-In . SVG Version: 6.00 Build 0)  -->
<!DOCTYPE svg PUBLIC "-//W3C//DTD SVG 1.1//EN" "http://www.w3.org/Graphics/SVG/1.1/DTD/svg11.dtd">
<svg version="1.1" id="Слой_1" xmlns="http://www.w3.org/2000/svg" xmlns:xlink="http://www.w3.org/1999/xlink" x="0px" y="0px"
	 width="24px" height="24px" viewBox="0 0 24 24" enable-background="new 0 0 24 24" xml:space="preserve">
<path fill="#FFFFFF" d="M9.94,20.386c-4.571-0.084-6.132-0.158-7.092-0.356c-0.649-0.132-1.213-0.422-1.627-0.845
	c-0.319-0.317-0.574-0.805-0.771-1.481c-0.169-0.563-0.235-1.031-0.329-2.176c-0.144-2.582-0.178-4.696,0-7.055
	c0.147-1.303,0.219-2.85,1.194-3.752c0.461-0.423,0.998-0.695,1.6-0.807c0.94-0.179,4.947-0.32,9.094-0.32
	c4.139,0,8.154,0.141,9.095,0.319c0.752,0.141,1.459,0.563,1.873,1.107c0.89,1.397,0.903,3.134,0.996,4.494
	c0.036,0.647,0.036,4.325,0,4.973c-0.142,2.147-0.257,2.906-0.575,3.694c-0.195,0.498-0.365,0.762-0.656,1.052
	c-0.459,0.448-1.043,0.745-1.677,0.854C17.109,20.384,13.752,20.446,9.94,20.386z M15.997,11.755
	c-2.201-1.173-4.307-2.261-6.461-3.387v6.736c2.266-1.229,4.655-2.354,6.469-3.359L15.997,11.755z"/>
</svg>
